<svg width="446" height="1126" fill="none" xmlns="http://www.w3.org/2000/svg"><path d="M-205.814 213.977l.013-.015.012-.016c19.705-26.064 65.669-32.551 91.906.074l.03.037.036.031L415.551 661.69l.007.005c20.879 19.025 27.385 39.314 27.072 56.933-.314 17.639-7.463 32.639-13.954 41.046l-.008.009-291.537 341.807-.009.01-.009.02c-9.842 13.01-26.262 21.17-43.528 22.79-17.26 1.62-35.309-3.29-48.42-16.33l-.015-.02-.018-.01-119.112-98.74-.01-.01-.01-.01c-13.081-9.758-19.65-26.044-20.461-43.21-.811-17.159 4.137-35.118 13.992-48.16L78.546 733.772l.332-.384-.39-.326-377.186-315.965-.011-.009-.011-.008c-13.105-9.778-21.313-26.089-22.946-43.237-1.632-17.144 3.312-35.072 16.44-48.095l.011-.011.01-.012 99.39-111.748z" stroke="#3898FE" stroke-opacity=".11"/><path d="M-205.687 22.987l.014-.015.012-.016c19.705-26.064 65.668-32.55 91.905.074l.03.038.037.03L415.679 470.7l.006.006c20.88 19.024 27.386 39.313 27.073 56.933-.314 17.638-7.463 32.639-13.955 41.046l-.007.009-291.537 341.809-.01.011-.009.012c-9.842 13.018-26.262 21.173-43.527 22.795-17.26 1.622-35.31-3.291-48.42-16.332l-.016-.016-.017-.015-119.113-98.74-.01-.008-.01-.007c-13.08-9.76-19.65-26.047-20.46-43.212-.812-17.159 4.136-35.118 13.991-48.161L78.674 542.783l.332-.384-.389-.326-377.186-315.965-.011-.009-.011-.009c-13.106-9.777-21.314-26.088-22.946-43.237-1.632-17.143 3.312-35.071 16.439-48.094l.011-.011.011-.012 99.389-111.749z" stroke="#3898FE" stroke-opacity=".11"/></svg>