<?xml version="1.0" encoding="utf-8"?><svg viewBox="0 0 13 13" xmlns="http://www.w3.org/2000/svg" xmlns:xlink="http://www.w3.org/1999/xlink"><style>:root>svg{display:none}:root>svg:target{display:block}</style><svg fill="none" viewBox="0 0 12 11" id="arrow-dropdown" xmlns="http://www.w3.org/2000/svg"><path d="M11 5l-5 5-5-5" stroke="#fff"/></svg><svg fill="none" viewBox="0 0 13 13" id="arrow-in" xmlns="http://www.w3.org/2000/svg"><path d="M5.12 9.093L6.14 10.11 9.75 6.5 6.139 2.889 5.12 3.907l1.863 1.87H0v1.445h6.984L5.12 9.092zM11.557 0H1.444C.643 0 0 .65 0 1.444v2.89h1.444v-2.89h10.112v10.112H1.444v-2.89H0v2.89C0 12.35.643 13 1.444 13h10.112C12.35 13 13 12.35 13 11.556V1.444C13 .65 12.35 0 11.556 0z" fill="#fff"/></svg></svg>