<svg width="18" height="18" viewBox="0 0 18 18" fill="none" xmlns="http://www.w3.org/2000/svg">
<path fill-rule="evenodd" clip-rule="evenodd" d="M16.109 9.0944C16.109 13.291 12.707 16.693 8.51042 16.693C4.31383 16.693 0.91183 13.291 0.91183 9.0944C0.91183 4.89782 4.31383 1.49581 8.51042 1.49581C12.707 1.49581 16.109 4.89782 16.109 9.0944ZM17.0208 9.0944C17.0208 13.7946 13.2106 17.6048 8.51042 17.6048C3.81024 17.6048 0 13.7946 0 9.0944C0 4.39423 3.81024 0.583984 8.51042 0.583984C13.2106 0.583984 17.0208 4.39423 17.0208 9.0944ZM6.68257 12.3367C7.28574 12.6632 7.95988 12.8264 8.70498 12.8264C9.28687 12.8264 9.81908 12.727 10.3016 12.5283C10.7913 12.3296 11.2064 12.0387 11.547 11.6555L10.8551 10.9849C10.2874 11.581 9.58845 11.879 8.7582 11.879C8.2047 11.879 7.70442 11.7548 7.25736 11.5065C6.8103 11.2581 6.45904 10.9175 6.20358 10.4846C5.95521 10.0447 5.83103 9.55503 5.83103 9.01572C5.83103 8.47641 5.95521 7.99033 6.20358 7.55746C6.45904 7.1175 6.8103 6.77333 7.25736 6.52497C7.70442 6.2766 8.2047 6.15242 8.7582 6.15242C9.59555 6.15242 10.2945 6.44691 10.8551 7.03589L11.547 6.3653C11.2064 5.98211 10.7948 5.69471 10.3123 5.50312C9.82972 5.30442 9.29751 5.20508 8.71562 5.20508C7.97052 5.20508 7.29639 5.37184 6.69321 5.70536C6.09004 6.03178 5.61814 6.48594 5.27753 7.06782C4.93691 7.64261 4.7666 8.29191 4.7666 9.01572C4.7666 9.73953 4.93691 10.3924 5.27753 10.9743C5.61814 11.5491 6.08649 12.0032 6.68257 12.3367Z" fill="white"/>
</svg>
