<svg width="32" height="32" viewBox="0 0 32 32" fill="none" xmlns="http://www.w3.org/2000/svg">
<path d="M32 15.9631C32 7.14597 24.8375 0 16 0C7.1625 0 0 7.14597 0 15.9631C0 23.9321 5.85 30.5356 13.5 31.7328V20.5774H9.4375V15.9631H13.5V12.4462C13.5 8.44609 15.8875 6.23558 19.5438 6.23558C21.2938 6.23558 23.125 6.54735 23.125 6.54735V10.4758H21.1063C19.1188 10.4758 18.5 11.7073 18.5 12.97V15.9631H22.9375L22.2281 20.5774H18.5V31.7328C26.15 30.5356 32 23.9321 32 15.9631Z"/>
<path d="M22.2281 20.5772L22.9375 15.9629H18.5V12.9698C18.5 11.7071 19.1188 10.4755 21.1063 10.4755H23.125V6.54713C23.125 6.54713 21.2938 6.23535 19.5438 6.23535C15.8875 6.23535 13.5 8.44586 13.5 12.446V15.9629H9.4375V20.5772H13.5V31.7326C14.3156 31.8605 15.15 31.9259 16 31.9259C16.85 31.9259 17.6844 31.8605 18.5 31.7326V20.5772H22.2281Z" fill="currentColor"/>
</svg>
