<svg width="40" height="40" viewBox="0 0 40 40" fill="none" xmlns="http://www.w3.org/2000/svg">
<path fill-rule="evenodd" clip-rule="evenodd" d="M0 19.9538C0 8.93364 8.95431 0 20 0C31.0457 0 40 8.93364 40 19.9538C40 30.974 31.0457 39.9077 20 39.9077C8.95431 39.9077 0 30.974 0 19.9538Z"/>
<path fill-rule="evenodd" clip-rule="evenodd" d="M20.0017 9.31183C17.1047 9.31183 16.7412 9.32447 15.6034 9.37613C14.4678 9.42801 13.6927 9.60737 13.0145 9.87054C12.3129 10.1424 11.7178 10.506 11.1249 11.0977C10.5316 11.6892 10.1671 12.283 9.89377 12.9827C9.62932 13.6596 9.44932 14.4331 9.39821 15.5657C9.34732 16.7008 9.33398 17.0638 9.33398 19.954C9.33398 22.8442 9.34687 23.2058 9.39843 24.341C9.45065 25.4739 9.63043 26.2473 9.89399 26.9239C10.1667 27.6239 10.5311 28.2176 11.1242 28.8092C11.7169 29.4011 12.312 29.7656 13.0131 30.0374C13.6918 30.3006 14.4671 30.48 15.6025 30.5319C16.7403 30.5835 17.1036 30.5962 20.0003 30.5962C22.8975 30.5962 23.2599 30.5835 24.3977 30.5319C25.5333 30.48 26.3093 30.3006 26.9879 30.0374C27.6893 29.7656 28.2835 29.4011 28.8762 28.8092C29.4695 28.2176 29.834 27.6239 30.1073 26.9242C30.3695 26.2473 30.5495 25.4737 30.6029 24.3412C30.654 23.2061 30.6673 22.8442 30.6673 19.954C30.6673 17.0638 30.654 16.701 30.6029 15.5659C30.5495 14.4329 30.3695 13.6596 30.1073 12.9829C29.834 12.283 29.4695 11.6892 28.8762 11.0977C28.2829 10.5057 27.6895 10.1421 26.9873 9.87054C26.3073 9.60737 25.5317 9.42801 24.3961 9.37613C23.2584 9.32447 22.8961 9.31183 19.9983 9.31183H20.0017ZM19.0447 11.2296C19.3287 11.2292 19.6456 11.2296 20.0016 11.2296C22.8496 11.2296 23.1872 11.2398 24.3119 11.2908C25.3519 11.3382 25.9163 11.5116 26.2923 11.6573C26.7901 11.8502 27.145 12.0808 27.5181 12.4532C27.8915 12.8257 28.1226 13.1804 28.3164 13.6771C28.4624 14.0518 28.6364 14.6149 28.6837 15.6525C28.7348 16.7744 28.7459 17.1114 28.7459 19.9515C28.7459 22.7917 28.7348 23.1287 28.6837 24.2505C28.6361 25.2881 28.4624 25.8513 28.3164 26.226C28.123 26.7226 27.8915 27.0762 27.5181 27.4485C27.1448 27.821 26.7903 28.0515 26.2923 28.2444C25.9168 28.3908 25.3519 28.5637 24.3119 28.6111C23.1874 28.6621 22.8496 28.6732 20.0016 28.6732C17.1534 28.6732 16.8158 28.6621 15.6913 28.6111C14.6513 28.5633 14.0869 28.3899 13.7107 28.2442C13.2129 28.0513 12.8573 27.8207 12.484 27.4483C12.1106 27.0758 11.8795 26.7219 11.6857 26.2251C11.5397 25.8504 11.3657 25.2872 11.3184 24.2496C11.2673 23.1278 11.2571 22.7908 11.2571 19.9489C11.2571 17.107 11.2673 16.7717 11.3184 15.6499C11.366 14.6123 11.5397 14.0491 11.6857 13.674C11.8791 13.1773 12.1106 12.8226 12.484 12.4501C12.8573 12.0777 13.2129 11.8471 13.7107 11.6537C14.0867 11.5074 14.6513 11.3345 15.6913 11.2868C16.6753 11.2425 17.0567 11.2292 19.0447 11.2269V11.2296ZM25.6955 12.9967C24.9888 12.9967 24.4154 13.568 24.4154 14.2733C24.4154 14.9783 24.9888 15.5503 25.6955 15.5503C26.4021 15.5503 26.9755 14.9783 26.9755 14.2733C26.9755 13.5682 26.4021 12.9967 25.6955 12.9967ZM20.0017 14.4888C16.9765 14.4888 14.5238 16.9358 14.5238 19.954C14.5238 22.9721 16.9765 25.418 20.0017 25.418C23.0268 25.418 25.4786 22.9721 25.4786 19.954C25.4786 16.9358 23.0268 14.4888 20.0017 14.4888ZM20.0016 16.4066C21.9652 16.4066 23.5572 17.9947 23.5572 19.954C23.5572 21.913 21.9652 23.5013 20.0016 23.5013C18.0378 23.5013 16.446 21.913 16.446 19.954C16.446 17.9947 18.0378 16.4066 20.0016 16.4066Z" fill="currentColor"/>
</svg>
