<svg width="260" height="172" viewBox="0 0 260 172" fill="none" xmlns="http://www.w3.org/2000/svg">
<rect x="2" y="2" width="256" height="168" fill="white" stroke="black" stroke-width="2.76923"/>
<path d="M148.95 128.816V121.353H146.592V128.816H143.317V121.353H140.959V128.816V131.064H147.979V132.937H150.337V128.816H148.95Z" fill="black"/>
<path d="M161.515 123.6V121.353H154.828V131.064H161.515V128.816H157.187V127.29H161.127V125.043H157.187V123.6H161.515Z" fill="black"/>
<path d="M172.235 121.353V124.987H168.503V121.353H166.145V131.064H168.503V127.235H172.235V131.064H174.593V121.353H172.235Z" fill="black"/>
<path d="M186.728 121.353H179.084V123.6H181.72V131.064H184.078V123.6H186.728V121.353Z" fill="black"/>
<path d="M195.284 125.82H193.577V123.6H195.284C196.088 123.6 196.491 123.974 196.491 124.71C196.491 125.445 196.088 125.82 195.284 125.82ZM195.381 121.353H191.219V131.064H193.577V128.067H195.381C197.434 128.067 198.877 126.832 198.877 124.682C198.877 122.532 197.434 121.353 195.381 121.353" fill="black"/>
<path d="M67.2982 121.416H61V131.127H63.3581V123.664H67.2982V121.416Z" fill="black"/>
<path d="M74.0223 126.868L75.0627 123.844L76.1031 126.868H74.0223ZM77.5738 131.127H80.0708L76.5471 121.416H73.5783L70.0547 131.127H72.5517L73.2454 129.115H76.8801L77.5738 131.127Z" fill="black"/>
<path d="M90.306 121.416L86.6713 127.534L86.8515 125.481V121.416H84.4932V131.127H87.1707L90.8194 125.009L90.6251 127.063V131.127H92.9835V121.416H90.306ZM88.7383 120.445C89.9452 120.445 91.0967 119.627 91.0967 118.184V117.754H89.2656V118.128C89.2683 118.2 89.2565 118.272 89.2309 118.339C89.2053 118.406 89.1664 118.468 89.1165 118.519C89.0666 118.571 89.0068 118.612 88.9407 118.641C88.8745 118.669 88.8033 118.683 88.7314 118.683C88.6595 118.683 88.5884 118.669 88.5222 118.641C88.4561 118.612 88.3963 118.571 88.3464 118.519C88.2965 118.468 88.2576 118.406 88.232 118.339C88.2064 118.272 88.1946 118.2 88.1973 118.128V117.754H86.3662V118.184C86.3662 119.627 87.5177 120.445 88.7383 120.445Z" fill="black"/>
<path d="M101.442 128.131L102.15 123.664H104.272V128.88H101.29C101.345 128.644 101.401 128.394 101.442 128.131ZM106.631 128.88V121.416H100.152L99.1256 127.895C99.0993 128.25 98.9744 128.591 98.7648 128.88H97.4053V133H99.7636V131.127H105.659V133H108.018V128.88H106.631Z" fill="black"/>
<path d="M116.13 126.868L117.17 123.844L118.211 126.868H116.13ZM119.681 131.127H122.178L118.655 121.416H115.686L112.162 131.127H114.659L115.353 129.115H118.987L119.681 131.127Z" fill="black"/>
<path d="M132.411 121.416L128.777 127.534L128.957 125.481V121.416H126.599V131.127H129.276L132.925 125.009L132.731 127.063V131.127H135.089V121.416H132.411ZM130.844 120.445C132.051 120.445 133.202 119.627 133.202 118.184V117.754H131.371V118.128C131.374 118.2 131.362 118.272 131.336 118.339C131.311 118.406 131.272 118.468 131.222 118.519C131.172 118.571 131.112 118.612 131.046 118.641C130.98 118.669 130.909 118.683 130.837 118.683C130.765 118.683 130.694 118.669 130.628 118.641C130.562 118.612 130.502 118.571 130.452 118.519C130.402 118.468 130.363 118.406 130.337 118.339C130.312 118.272 130.3 118.2 130.303 118.128V117.754H128.472V118.184C128.472 119.627 129.623 120.445 130.844 120.445Z" fill="black"/>
<path fill-rule="evenodd" clip-rule="evenodd" d="M109.514 83.4262C109.14 83.734 108.909 84.2037 108.762 84.8669C108.576 85.8641 108.516 86.8808 108.583 87.893C108.625 88.7746 108.724 89.6525 108.881 90.5209C108.919 90.6712 108.958 90.8182 108.998 90.9617C109.273 91.9544 109.578 92.7621 110.027 93.3368C110.49 93.8982 111.127 94.29 111.837 94.4509C112.993 94.7253 114.178 94.8531 115.366 94.8313C116.305 94.8358 117.265 94.7862 118.156 94.7027L118.157 94.7025L118.162 94.7022C118.846 94.6357 119.489 94.5508 120.051 94.4546C121.066 94.281 121.726 94.0896 122.162 93.8028C122.544 93.5518 122.841 93.1452 123.167 92.518C123.624 91.5923 124.009 90.6327 124.319 89.6478C124.661 88.6255 124.929 87.5798 125.12 86.5188C125.227 86.0342 125.24 85.5333 125.156 85.044C125.08 84.8003 124.943 84.5803 124.757 84.4049C124.64 84.2796 124.514 84.1624 124.381 84.0542C124.175 83.9324 123.963 83.8221 123.745 83.7239C122.916 83.3662 122.049 83.1041 121.16 82.9427C119.745 82.6831 118.315 82.5034 116.879 82.4046C116.711 82.3917 116.545 82.3791 116.379 82.367L116.151 82.3635C114.674 82.329 113.198 82.4185 111.737 82.631C110.676 82.8075 109.96 83.0583 109.514 83.4262H109.514ZM154.614 91.2027C154.541 91.5939 154.46 91.9711 154.372 92.3279C154.034 93.6867 153.579 94.8082 152.792 95.7323C151.968 96.6987 150.86 97.3665 149.266 97.7436C147.821 98.0396 146.347 98.1705 144.872 98.1336C143.867 98.1267 142.852 98.0723 141.91 97.9865C141.086 97.9133 140.315 97.8141 139.654 97.701C138.198 97.4521 137.165 97.121 136.305 96.5694C135.388 95.9814 134.769 95.222 134.171 94.1394C133.636 93.1311 133.177 92.0845 132.797 91.0084C132.372 89.8534 132.021 88.6729 131.744 87.4739C131.701 87.2772 131.663 87.0879 131.63 86.9058C131.119 86.7771 130.593 86.7097 130.066 86.7049C129.574 86.7342 129.09 86.8352 128.628 87.0047C128.599 87.1561 128.567 87.3125 128.532 87.4739C128.255 88.6729 127.904 89.8534 127.48 91.0084C127.1 92.0846 126.64 93.1312 126.105 94.1394C125.508 95.222 124.888 95.9814 123.971 96.5694C123.111 97.1207 122.078 97.4521 120.622 97.701C119.961 97.8141 119.191 97.9133 118.367 97.9865C117.424 98.0723 116.409 98.1267 115.404 98.1336C113.929 98.1705 112.455 98.0396 111.01 97.7436C109.416 97.3664 108.308 96.6987 107.484 95.7323C106.697 94.8082 106.242 93.6867 105.905 92.3279C105.816 91.9711 105.735 91.5939 105.662 91.2027C105.425 90.2505 105.222 89.2266 105.055 88.2262C104.796 86.68 104.618 85.1906 104.528 84.1003C104.456 83.3366 104.432 82.5691 104.459 81.8024C104.471 81.3509 104.541 80.903 104.668 80.4696C104.877 79.7929 105.131 79.3889 105.869 79.0735C106.322 78.9075 106.802 78.8278 107.284 78.8386C107.774 78.8187 108.51 78.8052 109.558 78.8132C110.384 78.8198 111.373 78.8391 112.538 78.8784C113.818 78.9216 115.302 78.9857 116.723 79.0883C118.305 79.1183 119.884 79.2578 121.447 79.5058C122.688 79.6927 123.895 80.0591 125.03 80.5937C125.492 80.8199 125.93 81.0921 126.338 81.4061C126.79 81.6988 127.206 82.0444 127.577 82.4356C127.918 82.7894 128.199 83.1968 128.409 83.6415C128.926 83.5101 129.455 83.4357 129.988 83.4199C130.626 83.4097 131.263 83.4687 131.888 83.5959C132.096 83.1692 132.37 82.7777 132.699 82.4356C133.07 82.0444 133.486 81.6988 133.938 81.4061C134.346 81.0921 134.784 80.8199 135.246 80.5937C136.381 80.0591 137.588 79.6927 138.829 79.5058C140.392 79.2578 141.971 79.1183 143.553 79.0883C144.974 78.9857 146.459 78.9216 147.738 78.8784C148.903 78.8391 149.892 78.8198 150.718 78.8132C151.766 78.8052 152.502 78.8187 152.993 78.8386C153.475 78.8278 153.954 78.9075 154.407 79.0735C155.145 79.3889 155.399 79.7929 155.608 80.4696C155.735 80.903 155.805 81.3509 155.817 81.8024C155.843 82.5691 155.82 83.3366 155.748 84.1003C155.658 85.1906 155.48 86.68 155.222 88.2262C155.054 89.2266 154.851 90.2505 154.614 91.2027H154.614ZM143.897 82.367C143.731 82.3789 143.564 82.3915 143.397 82.4046C141.961 82.5034 140.531 82.6831 139.116 82.9427C138.227 83.104 137.36 83.3661 136.531 83.7239C136.313 83.8221 136.101 83.9323 135.896 84.0542C135.762 84.1625 135.636 84.2796 135.519 84.4049C135.333 84.5803 135.196 84.8003 135.12 85.044C135.036 85.5333 135.049 86.0343 135.157 86.5188C135.347 87.5798 135.615 88.6255 135.957 89.6478C136.267 90.6327 136.652 91.5923 137.109 92.518C137.435 93.1452 137.733 93.5518 138.115 93.8028C138.55 94.0896 139.21 94.281 140.225 94.4546C140.787 94.5508 141.43 94.6357 142.114 94.7022L142.12 94.7025L142.12 94.7027C143.011 94.7862 143.971 94.8358 144.91 94.8313C146.098 94.8531 147.284 94.7253 148.439 94.4509C149.149 94.29 149.786 93.8982 150.249 93.3368C150.699 92.7621 151.003 91.9544 151.278 90.9617C151.318 90.8181 151.357 90.6711 151.395 90.5209C151.552 89.6524 151.651 88.7746 151.693 87.893C151.76 86.8808 151.7 85.8641 151.514 84.8669C151.367 84.2037 151.136 83.734 150.762 83.4262C150.316 83.0583 149.6 82.8075 148.539 82.631C147.078 82.4185 145.602 82.329 144.126 82.3635L143.897 82.367ZM122.052 60.4698C123.508 61.4005 124.964 62.3309 127.47 62.671C129.976 63.0108 133.532 62.7603 136.072 61.458C138.612 60.1554 140.135 57.801 140.715 55.2348C141.296 52.6684 140.934 49.8904 139.093 47.9962C137.252 46.1017 133.932 45.0915 131.989 43.9061C130.046 42.7207 129.48 41.3604 128.914 40C127.937 41.8932 126.96 43.7866 127.548 46.0378C128.136 48.2891 130.291 50.8988 131.004 53.1296C131.309 54.0223 131.374 54.9792 131.193 55.905C131.013 56.8308 130.592 57.6929 129.974 58.4054C128.958 59.5969 127.651 60.127 126.282 60.3611C124.914 60.5949 123.483 60.5323 122.052 60.4698Z" fill="black"/>
</svg>
