<svg width="34" height="34" viewBox="0 0 34 34" fill="none" xmlns="http://www.w3.org/2000/svg">
<path d="M27.6244 30.8125H27.4438C6.56563 29.6119 3.60125 11.9956 3.18688 6.61938C3.15349 6.20137 3.20291 5.78088 3.33231 5.382C3.46171 4.98312 3.66854 4.6137 3.94095 4.29489C4.21337 3.97609 4.54601 3.71417 4.91983 3.52414C5.29364 3.33412 5.70128 3.21972 6.11938 3.1875H11.9738C12.3993 3.18709 12.8153 3.31448 13.1676 3.55317C13.52 3.79187 13.7925 4.13086 13.95 4.52625L15.565 8.5C15.7205 8.88627 15.7591 9.30971 15.676 9.71772C15.5929 10.1257 15.3917 10.5003 15.0975 10.795L12.8344 13.0794C13.1879 15.0883 14.1499 16.9401 15.5904 18.3844C17.0308 19.8286 18.8801 20.7956 20.8881 21.1544L23.1938 18.87C23.4928 18.579 23.871 18.3826 24.281 18.3051C24.691 18.2276 25.1147 18.2726 25.4994 18.4344L29.505 20.0388C29.8944 20.2012 30.2267 20.4759 30.4594 20.8278C30.6922 21.1798 30.8149 21.5931 30.8119 22.015V27.625C30.8119 28.4704 30.4761 29.2811 29.8783 29.8789C29.2805 30.4767 28.4698 30.8125 27.6244 30.8125ZM6.37438 5.3125C6.09259 5.3125 5.82233 5.42444 5.62308 5.6237C5.42382 5.82296 5.31188 6.09321 5.31188 6.375V6.46C5.80063 12.75 8.935 27.625 27.5606 28.6875C27.7002 28.6961 27.8401 28.6771 27.9723 28.6315C28.1046 28.586 28.2265 28.5148 28.3311 28.422C28.4358 28.3292 28.5211 28.2167 28.5821 28.0908C28.6431 27.965 28.6788 27.8284 28.6869 27.6887V22.015L24.6813 20.4106L21.6319 23.4387L21.1219 23.375C11.8781 22.2169 10.6244 12.9731 10.6244 12.8775L10.5606 12.3675L13.5781 9.31813L11.9844 5.3125H6.37438Z" fill="#005AFF"/>
</svg>
