<svg width="41" height="40" viewBox="0 0 41 40" fill="none" xmlns="http://www.w3.org/2000/svg">
<path fill-rule="evenodd" clip-rule="evenodd" d="M0.400391 19.9538C0.400391 8.93364 9.3547 0 20.4004 0C31.4461 0 40.4004 8.93364 40.4004 19.9538C40.4004 30.974 31.4461 39.9077 20.4004 39.9077C9.3547 39.9077 0.400391 30.974 0.400391 19.9538Z"/>
<path d="M31.5351 14.5293C31.6997 13.9595 31.5351 13.5417 30.7569 13.5417H28.1787C27.5227 13.5417 27.2229 13.9031 27.0584 14.3001C27.0584 14.3001 25.7475 17.6317 23.89 19.7919C23.2905 20.4204 23.0166 20.6189 22.6897 20.6189C22.5263 20.6189 22.2888 20.4204 22.2888 19.8507V14.5293C22.2888 13.8456 22.0996 13.5417 21.5529 13.5417H17.5017C17.0926 13.5417 16.8457 13.8578 16.8457 14.1592C16.8457 14.8062 17.7744 14.9557 17.8697 16.7789V20.7341C17.8697 21.6004 17.7204 21.7584 17.3912 21.7584C16.5177 21.7584 14.3922 18.4146 13.1307 14.5869C12.885 13.8431 12.637 13.5429 11.9786 13.5429H9.40165C8.66453 13.5429 8.51758 13.9044 8.51758 14.3014C8.51758 15.0145 9.39107 18.5433 12.5864 23.2104C14.7166 26.3974 17.7157 28.125 20.4478 28.125C22.0855 28.125 22.2877 27.7415 22.2877 27.0799V24.6709C22.2877 23.9039 22.444 23.7495 22.9625 23.7495C23.3434 23.7495 23.9994 23.9505 25.5289 25.4858C27.2758 27.3065 27.5651 28.1238 28.5467 28.1238H31.1237C31.8596 28.1238 32.2276 27.7403 32.016 26.9831C31.7844 26.2295 30.9497 25.1329 29.8422 23.8353C29.2403 23.0952 28.341 22.2988 28.067 21.9006C27.685 21.3872 27.7955 21.1605 28.067 20.7047C28.0682 20.7059 31.2083 16.0964 31.5351 14.5293Z" fill="currentColor"/>
</svg>
