<svg width="40" height="40" viewBox="0 0 40 40" xmlns="http://www.w3.org/2000/svg">
<path d="M0 19.9538C0 8.93364 8.95431 0 20 0C31.0457 0 40 8.93364 40 19.9538C40 30.974 31.0457 39.9077 20 39.9077C8.95431 39.9077 0 30.974 0 19.9538Z"/>
<path d="M28.3353 13.0942C29.2533 13.3455 29.9762 14.086 30.2215 15.0263C30.6673 16.7306 30.6673 20.2865 30.6673 20.2865C30.6673 20.2865 30.6673 23.8423 30.2215 25.5466C29.9762 26.487 29.2533 27.2274 28.3353 27.4789C26.6718 27.9355 20.0007 27.9355 20.0007 27.9355C20.0007 27.9355 13.3295 27.9355 11.6659 27.4789C10.7479 27.2274 10.025 26.487 9.77968 25.5466C9.33398 23.8423 9.33398 20.2865 9.33398 20.2865C9.33398 20.2865 9.33398 16.7306 9.77968 15.0263C10.025 14.086 10.7479 13.3455 11.6659 13.0942C13.3295 12.6375 20.0007 12.6375 20.0007 12.6375C20.0007 12.6375 26.6718 12.6375 28.3353 13.0942ZM18.0007 17.2933V23.9446L23.334 20.6191L18.0007 17.2933Z" fill="currentColor"/>
</svg>
