<svg width="1280" height="720" viewBox="0 0 1280 720" fill="none" xmlns="http://www.w3.org/2000/svg">
<path d="M826.468 13.0055C811.378 11.4965 790.734 36.8787 805.583 49.0718C813.823 55.8323 831.841 52.9047 831.629 40.2287C831.584 39.8865 831.43 39.5676 831.192 39.3181C830.953 39.0686 830.641 38.9013 830.301 38.8404C818.229 36.094 806.519 41.2247 808.541 55.1683C809.621 61.1404 812.697 66.5691 817.264 70.5659C821.831 74.5628 827.619 76.8912 833.682 77.1702C834.406 77.1702 834.134 75.9328 833.682 75.8121C823.299 73.6089 813.461 67.1502 811.438 56.0134C810.966 54.0485 810.922 52.0052 811.307 50.0215C811.692 48.0378 812.499 46.1598 813.672 44.5144C815.08 42.7916 816.972 41.5301 819.104 40.8927C820.885 40.3193 827.314 39.3233 828.702 40.8927C831.539 43.9108 823.903 48.7096 821.64 49.4641C819.393 50.2843 816.992 50.5934 814.612 50.3689C812.231 50.1444 809.93 49.392 807.877 48.1663C801.569 43.7599 803.139 35.43 806.187 29.5447C810.292 21.5769 817.535 15.088 826.831 14.7862C827.676 14.7862 827.253 13.1866 826.589 13.1262L826.468 13.0055Z" fill="#FFB571"/>
<path d="M837.515 512.772C842.314 501.998 841.801 490.861 855.623 487.3C861.66 485.73 876.237 484.281 880.824 489.744C881.633 491.064 881.954 492.625 881.734 494.157C881.514 495.689 880.765 497.096 879.617 498.134C875.996 501.364 873.279 497.47 872.344 494.03C871.605 490.849 871.877 487.518 873.121 484.499C874.365 481.481 876.52 478.925 879.285 477.189C885.133 473.334 892.214 471.815 899.128 472.933C906.042 474.051 912.284 477.724 916.619 483.225C917.132 483.859 917.706 483.225 917.464 482.531C906.78 457.964 855.533 475.046 871.981 498.587C876.961 505.71 885.774 499.432 884.054 491.887C882.213 483.527 867.937 483.949 861.66 484.372C855.265 484.378 849.097 486.742 844.336 491.012C838.782 496.505 838.028 505.167 836.851 512.501C836.851 512.833 837.153 513.316 837.364 512.833L837.515 512.772Z" fill="#FFB571"/>
<path d="M1181.85 2.95542C1191.84 -0.0626776 1205.54 0.842754 1213.93 7.60329C1220.36 12.7944 1224.07 24.0821 1214.54 27.9453C1210.79 29.4543 1198.48 29.4543 1197 24.3537C1195.97 20.8225 1199.78 18.7099 1202.83 18.3175C1211.88 16.9594 1220.15 26.3758 1219.94 34.8265C1219.64 47.4723 1204.85 51.6675 1194.5 51.758C1193.8 51.758 1193.98 53.0558 1194.5 53.1162C1212.21 54.8063 1232.01 38.3879 1216.26 21.9392C1212 17.5026 1205.36 14.3336 1199.26 16.7783C1195.79 18.1666 1193.08 21.3054 1194.8 25.0479C1197.54 31.0841 1208.71 32.1102 1214.08 30.571C1215.52 30.1939 1216.86 29.5262 1218.02 28.6092C1219.18 27.6922 1220.15 26.5456 1220.85 25.2407C1221.55 23.9358 1221.98 22.5005 1222.1 21.0239C1222.22 19.5473 1222.04 18.0611 1221.57 16.6576C1217.22 0.631487 1194.83 -2.68842 1181.52 2.11035C1181.13 2.26126 1181.28 3.19687 1181.76 3.04596L1181.85 2.95542Z" fill="#FFB571"/>
<path d="M1280.15 628.758C1290.14 625.74 1303.87 626.645 1312.26 633.406C1318.69 638.566 1322.37 649.854 1312.83 653.747C1309.12 655.257 1296.78 655.257 1295.3 650.156C1294.27 646.625 1298.08 644.512 1301.12 644.12C1310.18 642.731 1318.48 652.178 1318.27 660.599C1317.96 673.275 1303.18 677.44 1292.82 677.56C1292.13 677.56 1292.31 678.828 1292.82 678.888C1310.54 680.609 1330.31 664.19 1314.55 647.711C1310.33 643.275 1303.69 640.136 1297.56 642.581C1294.12 643.969 1291.38 647.077 1293.1 650.85C1295.87 656.886 1307.01 657.912 1312.41 656.343C1313.85 655.971 1315.19 655.305 1316.35 654.389C1317.52 653.472 1318.48 652.324 1319.18 651.017C1319.88 649.711 1320.31 648.273 1320.42 646.795C1320.54 645.317 1320.35 643.831 1319.87 642.43C1315.52 626.434 1293.13 623.084 1279.85 627.913C1279.45 627.913 1279.6 628.969 1280.06 628.848L1280.15 628.758Z" fill="#FFB571"/>
<path d="M1253.92 169.766C1242 173.327 1230.95 194.272 1242 203.81C1251.42 211.928 1270.4 210.087 1267.26 194.755C1267.23 194.578 1267.15 194.412 1267.03 194.274C1266.92 194.136 1266.77 194.032 1266.6 193.971C1254.13 190.953 1250 205.56 1252.62 215.097C1256.7 230.188 1271.79 229.886 1282.8 222.039C1283.17 221.798 1282.99 220.771 1282.47 221.013C1273.42 225.48 1261.07 229.433 1255.64 217.995C1252.62 211.959 1252.62 201.848 1258.24 197.17C1259.69 195.795 1261.61 195.038 1263.61 195.057C1267.77 195.54 1267.05 200.037 1264.7 202.904C1260.98 207.431 1253.47 206.979 1248.46 205.198C1231.29 199.162 1243.09 176.918 1254.25 170.671C1254.58 170.46 1254.52 169.615 1254.04 169.735L1253.92 169.766Z" fill="#FFB571"/>
<path d="M989.144 117.462C975.11 115.651 944.899 127.512 952.746 146.647C956.971 156.848 975.684 163.428 981.871 151.717C981.989 151.391 981.984 151.033 981.856 150.71C981.728 150.388 981.486 150.123 981.176 149.967C951.871 133.337 921.207 181.295 952.142 198.89C953.108 199.464 953.078 197.804 952.505 197.351C949.824 195.516 947.537 193.164 945.777 190.433C944.018 187.702 942.822 184.647 942.26 181.448C941.698 178.249 941.78 174.969 942.503 171.802C943.226 168.635 944.574 165.644 946.468 163.005C949.633 157.936 954.148 153.849 959.507 151.204C963.521 149.303 973.571 146.647 977.283 150.57C979.003 152.381 978.943 150.088 978.068 152.23C977.525 153.528 975.744 154.253 974.476 154.735C971.332 155.714 967.948 155.597 964.879 154.403C958.269 152.14 953.229 146.134 954.949 138.951C958.39 124.554 976.74 119.303 989.567 119.182C990.472 119.182 989.899 117.552 989.205 117.462H989.144Z" fill="#FFB571"/>
<path d="M1046.19 16.3858C1046.19 16.3858 1045.31 32.1101 1057.02 40.8626L1069.24 37.1503C1069.24 37.1503 1061.06 33.2268 1057.02 16.3858H1046.19Z" fill="black"/>
<path d="M841.347 355.167C841.347 355.167 840.502 370.891 852.182 379.644L864.435 375.932C864.435 375.932 856.256 372.008 852.182 355.167H841.347Z" fill="black"/>
<path d="M947.072 546.303C947.072 546.303 946.197 562.028 957.907 570.78L969.979 567.068C969.979 567.068 961.8 563.144 957.907 546.303H947.072Z" fill="#FF7171"/>
<path d="M1246.56 569.06C1246.56 569.06 1239.43 583.124 1224.95 584.844L1216.2 575.488C1216.2 575.488 1225.25 576.182 1237.32 563.657L1246.56 569.06Z" fill="black"/>
<path d="M1050.98 318.648C1050.98 318.648 1043.86 332.683 1029.35 334.403L1020.62 325.047C1020.62 325.047 1029.68 325.741 1041.75 313.216L1050.98 318.648Z" fill="#FFB571"/>
<path d="M916.227 100.531C916.227 100.531 909.074 114.595 894.587 116.315L885.865 106.959C885.865 106.959 894.919 107.653 906.991 95.1282L916.227 100.531Z" fill="black"/>
<path d="M1186.53 121.506C1186.53 121.506 1170.89 123.438 1161.36 112.452L1164.22 99.9873C1164.22 99.9873 1168.69 107.865 1185.77 110.792L1186.53 121.506Z" fill="#FFB571"/>
<path d="M959.657 44.8769C959.657 44.8769 943.993 46.8386 934.486 35.8226L937.504 23.3578C937.504 23.3578 941.971 31.2653 959.053 34.1626L959.657 44.8769Z" fill="#FFB571"/>
<path d="M704.084 27.1001C704.084 27.1001 688.451 29.0619 678.914 18.0459L681.932 5.58112C681.932 5.58112 686.398 13.4885 703.481 16.3859L704.084 27.1001Z" fill="#FFB571"/>
<path d="M832.444 238.699C832.444 238.699 816.811 240.63 807.273 229.645L810.292 217.15C810.292 217.15 814.758 225.057 831.841 227.954L832.444 238.699Z" fill="#FFB571"/>
<path d="M1079.35 179.423C1079.35 179.423 1072.23 193.458 1057.75 195.178L1048.99 185.822C1048.99 185.822 1059.68 187.482 1071.63 174.957L1079.35 179.423Z" fill="black"/>
<path d="M1095.11 200.158C1095.11 200.158 1092.3 215.671 1078.93 221.496L1067.86 215.037C1075.68 211.496 1082.17 205.569 1086.42 198.106L1095.11 200.158Z" fill="#FF7171"/>
<path d="M552.697 40.591C567.788 39.0819 588.432 64.4339 573.552 76.6572C565.313 83.4178 547.295 80.4902 547.506 67.8142C547.546 67.4665 547.696 67.1409 547.936 66.8854C548.175 66.6299 548.49 66.4582 548.834 66.3957C560.906 63.6794 572.617 68.8102 570.595 82.7538C569.516 88.7211 566.445 94.146 561.884 98.1423C557.323 102.139 551.541 104.47 545.484 104.756C544.76 104.756 545.001 103.518 545.484 103.398C555.896 101.194 565.705 94.7356 567.758 83.5989C568.217 81.6313 568.253 79.5884 567.863 77.6058C567.473 75.6233 566.665 73.7464 565.494 72.0999C564.092 70.37 562.197 69.107 560.061 68.4782C558.281 67.9047 551.882 66.8786 550.464 68.4782C547.627 71.4963 555.293 76.2951 557.556 77.0798C559.799 77.891 562.194 78.1954 564.568 77.971C566.942 77.7466 569.238 76.999 571.289 75.782C577.597 71.3756 576.027 63.0456 572.979 57.1301C568.874 49.1926 561.631 42.7037 552.335 42.4018C551.49 42.4018 551.943 40.8023 552.607 40.7419L552.697 40.591Z" fill="#FFB571"/>
<path d="M462.456 461.465C457.687 450.69 458.17 439.553 444.347 435.992C438.311 434.422 423.764 432.974 419.146 438.437C418.338 439.757 418.016 441.317 418.237 442.849C418.457 444.381 419.206 445.788 420.354 446.827C423.975 450.056 426.692 446.163 427.627 442.722C428.366 439.542 428.094 436.21 426.85 433.192C425.605 430.173 423.451 427.618 420.686 425.881C414.838 422.026 407.756 420.508 400.843 421.625C393.929 422.743 387.686 426.416 383.352 431.917C382.839 432.551 382.265 431.917 382.507 431.223C393.04 406.596 444.347 423.678 427.959 447.219C422.979 454.342 414.166 448.064 415.887 440.519C417.728 432.159 432.003 432.581 438.281 433.004C444.676 433.01 450.844 435.374 455.605 439.644C461.188 445.137 461.913 453.799 463.09 461.133C463.09 461.465 462.788 461.948 462.577 461.465H462.456Z" fill="#FFB571"/>
<path d="M130.254 2.95541C120.294 -0.0626816 106.562 0.84275 98.1718 7.60328C91.7433 12.7944 88.031 24.0821 97.5682 27.9453C101.311 29.4543 113.624 29.4543 115.103 24.3537C116.129 20.8225 112.327 18.7099 109.278 18.3175C100.224 16.9594 91.9545 26.3758 92.1658 34.8265C92.4676 47.4723 107.256 51.6675 117.608 51.758C118.302 51.758 118.121 53.0558 117.608 53.1162C99.8921 54.8063 80.0934 38.3879 95.8479 21.9392C100.103 17.5026 106.743 14.3336 112.84 16.7783C116.311 18.1666 119.027 21.3054 117.307 25.0479C114.56 31.0841 103.423 32.1102 98.0209 30.571C96.5879 30.1939 95.2478 29.5262 94.0839 28.6092C92.92 27.6922 91.9571 26.5456 91.2551 25.2407C90.5531 23.9358 90.127 22.5005 90.0033 21.0239C89.8796 19.5473 90.0609 18.0611 90.536 16.6576C94.7915 0.54094 117.216 -2.77897 130.465 2.01981C130.858 2.17071 130.707 3.10632 130.224 2.95541H130.254Z" fill="#FFB571"/>
<path d="M16.7737 670.558C6.78379 667.54 -6.94855 668.445 -15.3087 675.206C-21.7674 680.397 -25.4495 691.685 -15.9123 695.548C-12.2 697.057 0.143976 697.057 1.62284 691.956C2.64899 688.425 -1.15381 686.313 -4.20208 685.92C-13.2564 684.562 -21.526 693.979 -21.3449 702.429C-21.0431 715.075 -6.25439 719.27 4.09768 719.361C4.79184 719.361 4.61076 720.659 4.09768 720.719C-13.6487 722.409 -33.4172 705.991 -17.6628 689.542C-13.4073 685.105 -6.79765 681.936 -0.670918 684.381C2.76971 685.769 5.36527 688.908 3.79586 692.651C1.01921 698.687 -10.1176 699.713 -15.5199 698.174C-16.9526 697.797 -18.2923 697.129 -19.4552 696.212C-20.6182 695.294 -21.5795 694.147 -22.2791 692.841C-22.9787 691.536 -23.4015 690.1 -23.5212 688.623C-23.6409 687.147 -23.4548 685.662 -22.9746 684.26C-18.6286 668.234 3.76568 664.914 17.0453 669.713C17.4377 669.864 17.2867 670.8 16.834 670.649L16.7737 670.558Z" fill="#FFB571"/>
<path d="M30.5967 175.802C42.6691 179.363 53.5946 200.309 42.6691 209.846C33.2526 217.965 14.2688 216.093 17.4076 200.792C17.4395 200.614 17.5177 200.448 17.6343 200.31C17.7508 200.172 17.9017 200.068 18.0716 200.007C30.5363 196.989 34.6711 211.596 32.0454 221.134C27.9709 236.224 12.8805 235.892 1.86442 228.075C1.53243 227.834 1.68334 226.808 2.19641 227.049C11.0998 231.516 23.5947 235.47 29.0273 224.031C32.0454 217.995 32.0454 207.884 26.4317 203.176C24.9715 201.823 23.0501 201.078 21.0595 201.093C16.8945 201.576 17.6189 206.073 19.973 208.94C23.7154 213.468 31.2305 212.985 36.2104 211.234C53.3833 205.198 41.5826 182.924 30.4156 176.707C30.0836 176.496 30.144 175.651 30.6269 175.772L30.5967 175.802Z" fill="#FFB571"/>
<path d="M322.959 117.462C336.994 115.651 367.205 127.512 359.358 146.647C355.162 156.848 336.42 163.428 330.263 151.717C330.128 151.396 330.122 151.035 330.245 150.709C330.369 150.384 330.613 150.118 330.927 149.967C360.233 133.397 391.048 181.295 359.991 198.89C358.995 199.464 359.026 197.804 359.629 197.351C362.307 195.513 364.591 193.16 366.348 190.429C368.105 187.698 369.299 184.644 369.861 181.446C370.423 178.247 370.342 174.969 369.621 171.803C368.901 168.636 367.556 165.645 365.665 163.005C362.501 157.936 357.986 153.849 352.627 151.204C348.613 149.303 338.563 146.647 334.851 150.57C333.13 152.381 333.191 150.088 334.066 152.23C334.609 153.528 336.39 154.253 337.658 154.735C340.812 155.714 344.205 155.597 347.285 154.403C353.865 152.14 358.905 146.134 357.185 138.951C353.744 124.554 335.394 119.303 322.567 119.182C321.662 119.182 322.235 117.552 322.929 117.462H322.959Z" fill="#FFB571"/>
<path d="M265.917 16.3858C265.917 16.3858 266.793 32.1101 255.082 40.8626L242.859 37.1503C242.859 37.1503 251.038 33.2268 255.082 16.3858H265.917Z" fill="black"/>
<path d="M443.231 321.968C443.231 321.968 444.106 337.692 432.426 346.445L420.203 342.733C420.203 342.733 428.382 338.809 432.456 321.968H443.231Z" fill="black"/>
<path d="M400.344 575.639C400.344 575.639 401.219 591.363 389.509 600.116L377.255 596.404C377.255 596.404 385.464 592.48 389.509 575.639H400.344Z" fill="#FF7171"/>
<path d="M-18.3267 66.6371C-18.3267 66.6371 -11.204 80.7014 3.2829 82.4217L12.0354 73.0656C12.0354 73.0656 2.98109 73.7598 -9.09129 61.2347L-18.3267 66.6371Z" fill="black"/>
<path d="M50.365 602.772C50.365 602.772 57.4877 616.806 71.9746 618.526L80.727 609.17C80.727 609.17 71.6727 609.864 59.6004 597.339L50.365 602.772Z" fill="black"/>
<path d="M261.179 318.648C261.179 318.648 268.302 332.683 282.819 334.403L291.541 325.047C291.541 325.047 282.487 325.741 270.415 313.216L261.179 318.648Z" fill="#FFB571"/>
<path d="M470.725 141.456C470.725 141.456 477.848 155.49 492.335 157.21L501.087 147.854C501.087 147.854 492.033 148.548 479.961 136.023L470.725 141.456Z" fill="black"/>
<path d="M125.606 121.506C125.606 121.506 141.24 123.438 150.747 112.452L147.729 99.9873C147.729 99.9873 143.262 107.865 126.179 110.792L125.606 121.506Z" fill="#FFB571"/>
<path d="M380.243 27.3716C380.243 27.3716 395.877 29.3032 405.414 18.3173L402.547 5.8526C402.547 5.8526 398.05 13.7298 380.967 16.6574L380.243 27.3716Z" fill="#FFB571"/>
<path d="M393.04 244.826C393.04 244.826 408.673 246.757 418.21 235.771L415.192 223.307C415.192 223.307 410.726 231.184 393.643 234.111L393.04 244.826Z" fill="#FFB571"/>
<path d="M232.748 179.423C232.748 179.423 239.871 193.458 254.388 195.178L263.11 185.822C263.11 185.822 252.426 187.482 240.475 174.957L232.748 179.423Z" fill="black"/>
<path d="M216.994 200.158C216.994 200.158 219.801 215.671 233.171 221.496L244.247 215.037C236.427 211.496 229.929 205.569 225.686 198.106L216.994 200.158Z" fill="#FF7171"/>
<path d="M745.765 110.158C745.765 110.158 738.642 124.223 724.155 125.943L715.403 116.587C715.403 116.587 726.117 118.217 738.069 105.692L745.765 110.158Z" fill="black"/>
<path d="M654.528 147.643C654.528 147.643 651.721 163.126 638.351 168.951L627.274 162.522C635.101 158.975 641.6 153.036 645.836 145.56L654.528 147.643Z" fill="#FF7171"/>
</svg>
