<svg xmlns="http://www.w3.org/2000/svg" xmlns:xlink="http://www.w3.org/1999/xlink"><symbol id="Confetti" viewBox="0 0 1280 720">
  <g class="lines">
    <path d="M826.468 13.0055C811.378 11.4965 790.734 36.8787 805.583 49.0718C813.823 55.8323 831.841 52.9047 831.629 40.2287C831.584 39.8865 831.43 39.5676 831.192 39.3181C830.953 39.0686 830.641 38.9013 830.301 38.8404C818.229 36.094 806.519 41.2247 808.541 55.1683C809.621 61.1404 812.697 66.5691 817.264 70.5659C821.831 74.5628 827.619 76.8912 833.682 77.1702C834.406 77.1702 834.134 75.9328 833.682 75.8121C823.299 73.6089 813.461 67.1502 811.438 56.0134C810.966 54.0485 810.922 52.0052 811.307 50.0215C811.692 48.0378 812.499 46.1598 813.672 44.5144C815.08 42.7916 816.972 41.5301 819.104 40.8927C820.885 40.3193 827.314 39.3233 828.702 40.8927C831.539 43.9108 823.903 48.7096 821.64 49.4641C819.393 50.2843 816.992 50.5934 814.612 50.3689C812.231 50.1444 809.93 49.392 807.877 48.1663C801.569 43.7599 803.139 35.43 806.187 29.5447C810.292 21.5769 817.535 15.088 826.831 14.7862C827.676 14.7862 827.253 13.1866 826.589 13.1262L826.468 13.0055Z" fill="#E3FF71"/>
    <path d="M837.515 512.772C842.314 501.998 841.801 490.861 855.623 487.3C861.66 485.73 876.237 484.281 880.824 489.744C881.633 491.064 881.954 492.625 881.734 494.157C881.514 495.689 880.765 497.096 879.617 498.134C875.996 501.364 873.279 497.47 872.344 494.03C871.605 490.849 871.877 487.518 873.121 484.499C874.365 481.481 876.52 478.925 879.285 477.189C885.133 473.334 892.214 471.815 899.128 472.933C906.042 474.051 912.284 477.724 916.619 483.225C917.132 483.859 917.706 483.225 917.464 482.531C906.78 457.964 855.533 475.046 871.981 498.587C876.961 505.71 885.774 499.432 884.054 491.887C882.213 483.527 867.937 483.949 861.66 484.372C855.265 484.378 849.097 486.742 844.336 491.012C838.782 496.505 838.028 505.167 836.851 512.501C836.851 512.833 837.153 513.316 837.364 512.833L837.515 512.772Z" fill="#E3FF71"/>
        <path d="M1181.85 2.95542C1191.84 -0.0626776 1205.54 0.842754 1213.93 7.60329C1220.36 12.7944 1224.07 24.0821 1214.54 27.9453C1210.79 29.4543 1198.48 29.4543 1197 24.3537C1195.97 20.8225 1199.78 18.7099 1202.83 18.3175C1211.88 16.9594 1220.15 26.3758 1219.94 34.8265C1219.64 47.4723 1204.85 51.6675 1194.5 51.758C1193.8 51.758 1193.98 53.0558 1194.5 53.1162C1212.21 54.8063 1232.01 38.3879 1216.26 21.9392C1212 17.5026 1205.36 14.3336 1199.26 16.7783C1195.79 18.1666 1193.08 21.3054 1194.8 25.0479C1197.54 31.0841 1208.71 32.1102 1214.08 30.571C1215.52 30.1939 1216.86 29.5262 1218.02 28.6092C1219.18 27.6922 1220.15 26.5456 1220.85 25.2407C1221.55 23.9358 1221.98 22.5005 1222.1 21.0239C1222.22 19.5473 1222.04 18.0611 1221.57 16.6576C1217.22 0.631487 1194.83 -2.68842 1181.52 2.11035C1181.13 2.26126 1181.28 3.19687 1181.76 3.04596L1181.85 2.95542Z" fill="#E3FF71"/>
        <path d="M1280.15 628.758C1290.14 625.74 1303.87 626.645 1312.26 633.406C1318.69 638.566 1322.37 649.854 1312.83 653.747C1309.12 655.257 1296.78 655.257 1295.3 650.156C1294.27 646.625 1298.08 644.512 1301.12 644.12C1310.18 642.731 1318.48 652.178 1318.27 660.599C1317.96 673.275 1303.18 677.44 1292.82 677.56C1292.13 677.56 1292.31 678.828 1292.82 678.888C1310.54 680.609 1330.31 664.19 1314.55 647.711C1310.33 643.275 1303.69 640.136 1297.56 642.581C1294.12 643.969 1291.38 647.077 1293.1 650.85C1295.87 656.886 1307.01 657.912 1312.41 656.343C1313.85 655.971 1315.19 655.305 1316.35 654.389C1317.52 653.472 1318.48 652.324 1319.18 651.017C1319.88 649.711 1320.31 648.273 1320.42 646.795C1320.54 645.317 1320.35 643.831 1319.87 642.43C1315.52 626.434 1293.13 623.084 1279.85 627.913C1279.45 627.913 1279.6 628.969 1280.06 628.848L1280.15 628.758Z" fill="#E3FF71"/>
        <path d="M1253.92 169.766C1242 173.327 1230.95 194.272 1242 203.81C1251.42 211.928 1270.4 210.087 1267.26 194.755C1267.23 194.578 1267.15 194.412 1267.03 194.274C1266.92 194.136 1266.77 194.032 1266.6 193.971C1254.13 190.953 1250 205.56 1252.62 215.097C1256.7 230.188 1271.79 229.886 1282.8 222.039C1283.17 221.798 1282.99 220.771 1282.47 221.013C1273.42 225.48 1261.07 229.433 1255.64 217.995C1252.62 211.959 1252.62 201.848 1258.24 197.17C1259.69 195.795 1261.61 195.038 1263.61 195.057C1267.77 195.54 1267.05 200.037 1264.7 202.904C1260.98 207.431 1253.47 206.979 1248.46 205.198C1231.29 199.162 1243.09 176.918 1254.25 170.671C1254.58 170.46 1254.52 169.615 1254.04 169.735L1253.92 169.766Z" fill="#E3FF71"/>
        <path d="M989.144 117.462C975.11 115.651 944.899 127.512 952.746 146.647C956.971 156.848 975.684 163.428 981.871 151.717C981.989 151.391 981.984 151.033 981.856 150.71C981.728 150.388 981.486 150.123 981.176 149.967C951.871 133.337 921.207 181.295 952.142 198.89C953.108 199.464 953.078 197.804 952.505 197.351C949.824 195.516 947.537 193.164 945.777 190.433C944.018 187.702 942.822 184.647 942.26 181.448C941.698 178.249 941.78 174.969 942.503 171.802C943.226 168.635 944.574 165.644 946.468 163.005C949.633 157.936 954.148 153.849 959.507 151.204C963.521 149.303 973.571 146.647 977.283 150.57C979.003 152.381 978.943 150.088 978.068 152.23C977.525 153.528 975.744 154.253 974.476 154.735C971.332 155.714 967.948 155.597 964.879 154.403C958.269 152.14 953.229 146.134 954.949 138.951C958.39 124.554 976.74 119.303 989.567 119.182C990.472 119.182 989.899 117.552 989.205 117.462H989.144Z" fill="#E3FF71"/>
        <path d="M552.697 40.591C567.788 39.0819 588.431 64.4339 573.552 76.6572C565.313 83.4178 547.295 80.4902 547.506 67.8142C547.546 67.4665 547.696 67.1409 547.935 66.8854C548.175 66.6299 548.49 66.4582 548.834 66.3957C560.906 63.6794 572.617 68.8102 570.594 82.7538C569.515 88.7211 566.445 94.146 561.884 98.1423C557.323 102.139 551.541 104.47 545.484 104.756C544.76 104.756 545.001 103.518 545.484 103.398C555.896 101.194 565.705 94.7356 567.757 83.5989C568.217 81.6313 568.253 79.5884 567.863 77.6058C567.473 75.6233 566.665 73.7464 565.494 72.0999C564.092 70.37 562.197 69.107 560.061 68.4782C558.281 67.9047 551.882 66.8786 550.464 68.4782C547.627 71.4963 555.293 76.2951 557.556 77.0798C559.799 77.891 562.194 78.1954 564.568 77.971C566.942 77.7466 569.238 76.999 571.289 75.782C577.596 71.3756 576.027 63.0456 572.979 57.1301C568.874 49.1926 561.631 42.7037 552.335 42.4018C551.49 42.4018 551.943 40.8023 552.607 40.7419L552.697 40.591Z" fill="#E3FF71"/>
        <path d="M462.456 461.465C457.687 450.69 458.17 439.553 444.347 435.992C438.311 434.422 423.764 432.974 419.146 438.437C418.338 439.757 418.016 441.317 418.237 442.849C418.457 444.381 419.206 445.788 420.354 446.827C423.975 450.056 426.692 446.163 427.627 442.722C428.366 439.542 428.094 436.21 426.85 433.192C425.605 430.173 423.451 427.618 420.686 425.881C414.838 422.026 407.756 420.508 400.843 421.625C393.929 422.743 387.686 426.416 383.352 431.917C382.839 432.551 382.265 431.917 382.507 431.223C393.04 406.596 444.347 423.678 427.959 447.219C422.979 454.342 414.166 448.064 415.887 440.519C417.728 432.159 432.003 432.581 438.281 433.004C444.676 433.01 450.844 435.374 455.605 439.644C461.188 445.137 461.913 453.799 463.09 461.133C463.09 461.465 462.788 461.948 462.577 461.465H462.456Z" fill="#E3FF71"/>
        <path d="M130.254 2.95541C120.295 -0.0626816 106.562 0.84275 98.1719 7.60328C91.7433 12.7944 88.0311 24.0821 97.5682 27.9453C101.311 29.4543 113.625 29.4543 115.103 24.3537C116.13 20.8225 112.327 18.7099 109.278 18.3175C100.224 16.9594 91.9546 26.3758 92.1658 34.8265C92.4677 47.4723 107.256 51.6675 117.608 51.758C118.303 51.758 118.121 53.0558 117.608 53.1162C99.8922 54.8063 80.0935 38.3879 95.8479 21.9392C100.103 17.5026 106.743 14.3336 112.84 16.7783C116.311 18.1666 119.027 21.3054 117.307 25.0479C114.56 31.0841 103.423 32.1102 98.021 30.571C96.588 30.1939 95.2479 29.5262 94.084 28.6092C92.92 27.6922 91.9571 26.5456 91.2551 25.2407C90.5531 23.9358 90.1271 22.5005 90.0034 21.0239C89.8797 19.5473 90.061 18.0611 90.5361 16.6576C94.7916 0.54094 117.216 -2.77897 130.465 2.01981C130.858 2.17071 130.707 3.10632 130.224 2.95541H130.254Z" fill="#E3FF71"/>
        <path d="M16.7737 670.558C6.78385 667.54 -6.94849 668.445 -15.3086 675.206C-21.7673 680.397 -25.4494 691.685 -15.9122 695.548C-12.2 697.057 0.144037 697.057 1.6229 691.956C2.64906 688.425 -1.15375 686.313 -4.20202 685.92C-13.2563 684.562 -21.5259 693.979 -21.3448 702.429C-21.043 715.075 -6.25433 719.27 4.09774 719.361C4.7919 719.361 4.61082 720.659 4.09774 720.719C-13.6487 722.409 -33.4172 705.991 -17.6627 689.542C-13.4072 685.105 -6.79759 681.936 -0.670856 684.381C2.76977 685.769 5.36533 688.908 3.79592 692.651C1.01928 698.687 -10.1175 699.713 -15.5199 698.174C-16.9526 697.797 -18.2922 697.129 -19.4552 696.212C-20.6181 695.294 -21.5794 694.147 -22.279 692.841C-22.9786 691.536 -23.4014 690.1 -23.5211 688.623C-23.6408 687.147 -23.4547 685.662 -22.9746 684.26C-18.6285 668.234 3.76574 664.914 17.0454 669.713C17.4377 669.864 17.2868 670.8 16.8341 670.649L16.7737 670.558Z" fill="#E3FF71"/>
        <path d="M30.5966 175.802C42.6689 179.363 53.5945 200.309 42.6689 209.846C33.2525 217.965 14.2687 216.093 17.4075 200.792C17.4394 200.614 17.5176 200.448 17.6341 200.31C17.7507 200.172 17.9016 200.068 18.0715 200.007C30.5362 196.989 34.671 211.596 32.0453 221.134C27.9708 236.224 12.8803 235.892 1.8643 228.075C1.53231 227.834 1.68321 226.808 2.19629 227.049C11.0997 231.516 23.5946 235.47 29.0272 224.031C32.0453 217.995 32.0452 207.884 26.4316 203.176C24.9713 201.823 23.05 201.078 21.0594 201.093C16.8944 201.576 17.6188 206.073 19.9729 208.94C23.7153 213.468 31.2304 212.985 36.2102 211.234C53.3832 205.198 41.5824 182.924 30.4155 176.707C30.0835 176.496 30.1438 175.651 30.6267 175.772L30.5966 175.802Z" fill="#E3FF71"/>
        <path d="M322.959 117.462C336.994 115.651 367.205 127.512 359.358 146.647C355.162 156.848 336.42 163.428 330.263 151.717C330.128 151.396 330.122 151.035 330.245 150.709C330.369 150.384 330.613 150.118 330.927 149.967C360.233 133.397 391.048 181.295 359.991 198.89C358.995 199.464 359.026 197.804 359.629 197.351C362.307 195.513 364.591 193.16 366.348 190.429C368.105 187.698 369.299 184.644 369.861 181.446C370.423 178.247 370.342 174.969 369.621 171.803C368.901 168.636 367.556 165.645 365.665 163.005C362.501 157.936 357.986 153.849 352.627 151.204C348.613 149.303 338.563 146.647 334.851 150.57C333.13 152.381 333.191 150.088 334.066 152.23C334.609 153.528 336.39 154.253 337.658 154.735C340.812 155.714 344.205 155.597 347.285 154.403C353.865 152.14 358.905 146.134 357.185 138.951C353.744 124.554 335.394 119.303 322.567 119.182C321.662 119.182 322.235 117.552 322.929 117.462H322.959Z" fill="#E3FF71"/>

  </g>
  <g class="greens">
        <path d="M1050.98 318.648C1050.98 318.648 1043.86 332.683 1029.35 334.403L1020.62 325.047C1020.62 325.047 1029.68 325.741 1041.75 313.216L1050.98 318.648Z" fill="#E3FF71"/>
        <path d="M959.657 44.8769C959.657 44.8769 943.993 46.8386 934.486 35.8226L937.504 23.3578C937.504 23.3578 941.971 31.2653 959.053 34.1626L959.657 44.8769Z" fill="#E3FF71"/>
        <path d="M832.444 238.699C832.444 238.699 816.811 240.63 807.273 229.645L810.292 217.15C810.292 217.15 814.758 225.057 831.841 227.954L832.444 238.699Z" fill="#E3FF71"/>
        <path d="M261.179 318.648C261.179 318.648 268.302 332.683 282.819 334.403L291.541 325.047C291.541 325.047 282.487 325.741 270.415 313.216L261.179 318.648Z" fill="#E3FF71"/>
        <path d="M393.04 244.826C393.04 244.826 408.673 246.757 418.21 235.771L415.192 223.307C415.192 223.307 410.726 231.184 393.643 234.111L393.04 244.826Z" fill="#E3FF71"/>
        <path d="M125.606 121.506C125.606 121.506 141.24 123.438 150.747 112.452L147.729 99.9873C147.729 99.9873 143.262 107.865 126.179 110.792L125.606 121.506Z" fill="#E3FF71"/>
        <path d="M380.243 27.3716C380.243 27.3716 395.877 29.3032 405.414 18.3173L402.547 5.8526C402.547 5.8526 398.05 13.7298 380.967 16.6574L380.243 27.3716Z" fill="#E3FF71"/>

  </g>
  <g class="black">
        <path d="M1046.19 16.3858C1046.19 16.3858 1045.31 32.1101 1057.02 40.8626L1069.24 37.1503C1069.24 37.1503 1061.06 33.2268 1057.02 16.3858H1046.19Z" fill="black"/>
        <path d="M841.347 355.167C841.347 355.167 840.502 370.891 852.182 379.644L864.435 375.932C864.435 375.932 856.256 372.008 852.182 355.167H841.347Z" fill="black"/>
        <path d="M1246.56 569.06C1246.56 569.06 1239.43 583.124 1224.95 584.844L1216.2 575.488C1216.2 575.488 1225.25 576.182 1237.32 563.657L1246.56 569.06Z" fill="black"/>
        <path d="M916.227 100.531C916.227 100.531 909.074 114.595 894.587 116.315L885.865 106.959C885.865 106.959 894.919 107.653 906.991 95.1282L916.227 100.531Z" fill="black"/>
        <path d="M704.084 27.1001C704.084 27.1001 688.451 29.0619 678.914 18.0459L681.932 5.58112C681.932 5.58112 686.398 13.4885 703.481 16.3859L704.084 27.1001Z" fill="#E3FF71"/>
        <path d="M1079.35 179.423C1079.35 179.423 1072.23 193.458 1057.75 195.178L1048.99 185.822C1048.99 185.822 1059.68 187.482 1071.63 174.957L1079.35 179.423Z" fill="black"/>
        <path d="M265.917 16.3858C265.917 16.3858 266.793 32.1101 255.082 40.8626L242.859 37.1503C242.859 37.1503 251.038 33.2268 255.082 16.3858H265.917Z" fill="black"/>
        <path d="M443.231 321.968C443.231 321.968 444.106 337.692 432.426 346.445L420.203 342.733C420.203 342.733 428.382 338.809 432.456 321.968H443.231Z" fill="black"/>
        <path d="M-18.3268 66.6371C-18.3268 66.6371 -11.2041 80.7014 3.28278 82.4217L12.0352 73.0656C12.0352 73.0656 2.98097 73.7598 -9.09141 61.2347L-18.3268 66.6371Z" fill="black"/>
        <path d="M50.3651 602.772C50.3651 602.772 57.4878 616.806 71.9746 618.526L80.7271 609.17C80.7271 609.17 71.6728 609.864 59.6004 597.339L50.3651 602.772Z" fill="black"/>
        <path d="M470.725 141.456C470.725 141.456 477.848 155.49 492.335 157.21L501.087 147.854C501.087 147.854 492.033 148.548 479.961 136.023L470.725 141.456Z" fill="black"/>
        <path d="M745.765 110.158C745.765 110.158 738.642 124.223 724.155 125.943L715.403 116.587C715.403 116.587 726.117 118.217 738.069 105.692L745.765 110.158Z" fill="black"/>
        <path d="M232.748 179.423C232.748 179.423 239.871 193.458 254.388 195.178L263.11 185.822C263.11 185.822 252.426 187.482 240.475 174.957L232.748 179.423Z" fill="black"/>

  </g>
  <g class="blues">
        <path d="M947.072 546.303C947.072 546.303 946.197 562.028 957.907 570.78L969.979 567.068C969.979 567.068 961.8 563.144 957.907 546.303H947.072Z" fill="#67A0B3"/>
        <path d="M1095.11 200.158C1095.11 200.158 1092.3 215.671 1078.93 221.496L1067.86 215.037C1075.68 211.496 1082.17 205.569 1086.42 198.106L1095.11 200.158Z" fill="#67A0B3"/>
        <path d="M400.344 575.639C400.344 575.639 401.219 591.363 389.509 600.116L377.255 596.404C377.255 596.404 385.464 592.48 389.509 575.639H400.344Z" fill="#67A0B3"/>
        <path d="M216.994 200.158C216.994 200.158 219.801 215.671 233.171 221.496L244.247 215.037C236.427 211.496 229.929 205.569 225.686 198.106L216.994 200.158Z" fill="#67A0B3"/>
        <path d="M654.528 147.643C654.528 147.643 651.721 163.126 638.351 168.951L627.274 162.522C635.101 158.975 641.6 153.036 645.836 145.56L654.528 147.643Z" fill="#67A0B3"/>
  </g>
</symbol><symbol id="cross" viewBox="0 0 32 32">
<path d="M27.6775 27.6775C28.1075 27.2475 28.1075 26.5504 27.6775 26.1205L17.557 16L27.6775 5.87954C28.1075 5.44959 28.1075 4.75249 27.6775 4.32254C27.2476 3.89259 26.5505 3.89259 26.1205 4.32254L16 14.443L5.87947 4.32247C5.44951 3.89251 4.75242 3.89251 4.32247 4.32247C3.89251 4.75242 3.89251 5.44951 4.32247 5.87947L14.443 16L4.3225 26.1205C3.89254 26.5505 3.89254 27.2476 4.3225 27.6775C4.75245 28.1075 5.44954 28.1075 5.8795 27.6775L16 17.557L26.1205 27.6775C26.5505 28.1074 27.2475 28.1074 27.6775 27.6775Z" fill="black"/>
</symbol><symbol id="paper" viewBox="0 0 63 83">
<path d="M62.1323 68.0606L58.7811 61.4532L62.0723 50.6239C63.7177 45.5394 63.1484 40.1002 60.5713 35.3231L53.0974 21.601C51.3458 18.2465 47.3278 16.9274 43.7753 18.5551C43.5185 18.606 43.3124 18.9114 43.0545 18.9615L35.1685 3.86688C33.4168 0.51234 29.0892 -1.01027 25.6912 0.719044C24.7129 1.1773 23.9414 1.99113 23.1687 2.80424C21.0571 0.975047 18.0175 0.518936 15.3402 1.84198C12.6629 3.16482 11.2227 5.96151 11.481 8.5542C10.3993 8.50363 9.36953 8.70836 8.28858 9.31876C4.89048 11.0479 3.3481 15.3201 5.09987 18.6745L6.43989 21.3175C5.51348 21.369 4.63678 21.6744 3.91709 22.0815C0.518993 23.8106 -1.02339 28.0828 0.728381 31.4372L5.62521 41.0425C6.75854 43.33 7.94514 45.8706 8.87313 49.1244L9.07985 49.48C11.4526 56.5457 17.744 74.996 31.1847 75.2444L34.5359 81.8518C35.1542 82.9189 36.4426 83.325 37.5235 82.7146C38.6045 82.1042 39.0159 80.8324 38.3975 79.7653L34.4282 72.0907C34.0166 71.3792 33.2436 70.871 32.3162 70.9218C21.2448 71.7908 15.4691 54.5596 13.1997 48.0027L12.993 47.6471C11.9102 44.293 10.6736 41.4967 9.38416 39.1081L4.48733 29.5028C3.81641 28.1815 4.33159 26.7582 5.67015 26.0958C7.00865 25.4334 8.60564 26.0441 9.12144 27.2634L16.3891 41.2912C17.0075 42.3583 18.2958 42.7645 19.3768 42.154C20.4577 41.5436 20.8691 40.2718 20.2508 39.2047L9.27157 16.7902C8.60065 15.4688 9.21918 13.8923 10.4544 13.3831C11.7929 12.7208 13.2347 13.2293 13.9057 14.5507L23.8537 33.8644C24.472 34.9315 25.7604 35.3376 26.7379 34.8804C27.8189 34.27 28.2303 32.9982 27.612 31.9311L16.0659 9.36532C15.395 8.04398 16.0135 6.46745 17.2487 5.95826C18.5872 5.29594 20.1842 5.90656 20.7 7.12592L31.3696 28.0155C31.9879 29.0826 33.2762 29.4887 34.3572 28.8783C35.4382 28.2679 35.8496 26.996 35.2312 25.9289L26.1592 8.29234C25.4883 6.97099 26.1068 5.39448 27.342 4.88529C28.6805 4.22297 30.1223 4.73153 30.7933 6.05293L39.4524 22.9772C38.8864 24.808 38.8873 26.7903 39.7632 28.4674L42.2374 33.3969C30.3461 44.0775 37.6641 55.0552 37.8195 55.1573C38.5405 56.0723 39.6737 56.3763 40.6519 55.9181C40.6519 55.9181 40.7546 55.7659 40.9087 55.8672C41.8356 55.1555 42.0928 53.7823 41.37 52.8677C41.1633 52.5122 36.3717 45.3968 44.0412 37.6661C44.2987 38.2763 44.6088 39.1407 44.7636 39.903L45.1759 41.2755C45.5374 42.3935 46.6187 43.1043 47.9056 42.8506C49.038 42.4936 49.7581 41.4263 49.501 40.1558L49.0887 38.7833C49.2949 36.4963 48.8301 34.8696 47.8517 33.3445L44.2433 26.127C43.8316 25.4155 43.831 24.7545 44.0871 24.0427C44.3443 23.3316 44.9106 22.8221 45.5287 22.5679C46.8672 21.9056 48.4642 22.5162 48.98 23.7355L56.4539 37.4576C58.4122 41.1678 58.8789 45.4378 57.6956 49.5053L54.0451 61.1997C53.8905 61.7586 53.9938 62.2675 54.2513 62.8776L58.014 70.1965C58.6324 71.2636 59.9207 71.6697 61.0017 71.0593C62.2372 70.552 62.7512 69.128 62.1329 68.0609L62.1323 68.0606Z" fill="black"/>
</symbol><symbol id="rock" viewBox="0 0 52 67">
<path d="M17.6387 3.01761C15.9491 1.88539 13.695 1.31928 11.4425 2.07366C8.43793 3.01762 6.37248 6.03782 6.37248 9.24602L6.37248 15.8525C3.74384 17.3626 1.8658 20.0047 1.49094 23.2133L0.175947 32.8386C-0.574542 37.9348 1.11504 43.2195 4.49419 47.1823L12.9433 56.997L12.9433 64.7356C12.9433 66.0574 13.8824 67 15.196 67C16.511 67 17.4488 66.056 17.4488 64.7356L17.4488 56.0529C17.4488 55.4868 17.2615 54.9207 16.8856 54.5429L7.87326 44.162C5.24462 41.1419 4.1183 37.3674 4.68143 33.4033L5.99641 23.778C6.37231 20.9475 8.81235 18.8711 11.6297 19.0595L23.2708 19.2478C24.773 19.2478 25.8994 20.38 25.8994 21.8901C25.8994 22.6444 25.5235 23.2119 25.1489 23.778C24.5857 24.3441 24.0225 24.5323 23.2707 24.5323L15.3846 24.1545C14.2582 24.1545 13.3191 24.9089 13.1318 26.0424L12.3813 31.1387C12.1941 32.4605 13.1318 33.5927 14.2595 33.7809C15.3859 33.9692 16.7009 33.0266 16.8882 31.893L17.2641 29.2508C25.1502 33.0252 24.5869 40.7637 24.5869 41.1416C24.3996 42.4634 25.3374 43.406 26.6524 43.5956L26.8396 43.5956C27.966 43.5956 28.9051 42.6516 29.0924 41.5194C29.4683 38.311 28.5292 33.0265 24.5857 28.874C26.088 28.6857 27.5903 28.1196 28.7166 26.986C29.2798 26.4199 29.6557 25.8538 30.0316 25.2877C31.1579 26.0421 32.4729 26.4199 33.9753 26.4199C36.228 26.4199 38.2935 25.2877 39.6085 23.5894C40.7349 24.5334 42.2372 24.9112 43.7394 24.9112C44.8658 24.9112 45.8049 24.7229 46.7439 24.1568C47.8703 30.5736 48.0589 37.1801 48.0589 41.8985C48.0589 46.0507 45.8061 49.8255 42.4256 52.0897L40.3601 53.4115C39.6097 53.7893 39.2338 54.5437 39.2338 55.2994L39.2338 64.3584C39.2338 65.6802 40.1728 66.6229 41.4865 66.6229C42.8015 66.6229 43.7393 65.6789 43.7393 64.3584L43.7393 56.6199L44.1139 56.4303C48.9954 53.4102 51.8126 48.1255 52 42.4634C52 36.6128 51.8127 28.1196 49.9345 20.3811C50.1218 19.6267 50.3104 18.871 50.3104 18.1166L50.3104 10.7559C50.3104 6.79169 47.1186 3.20702 43.175 3.20702C41.4855 3.20702 40.1705 3.77313 38.8568 4.52883C37.5418 2.83049 35.4777 1.69831 33.2235 1.69831C31.7212 1.69831 30.219 2.26441 29.0927 3.0201C27.7777 1.32177 25.7136 6.08477e-06 23.2723 5.87135e-06C21.0182 0.186954 18.9527 1.31918 17.6391 3.01748L17.6387 3.01761ZM16.3237 14.7204L11.817 14.5321L11.0665 14.5321L11.0665 8.86963C11.0665 7.35956 12.1929 6.22737 13.6952 6.22737C15.1974 6.22737 16.3238 7.35959 16.3238 8.86963L16.3237 14.7204ZM40.3576 10.3797C40.3576 8.86966 41.484 7.73747 42.9862 7.73747C44.4885 7.73747 45.6148 8.86969 45.6148 10.3797L45.6148 18.1183C45.6148 19.6284 44.4885 20.7606 42.9862 20.7606C41.484 20.7606 40.3576 19.6283 40.3576 18.1183L40.3576 10.3797ZM30.5948 9.05793C30.5948 7.54786 31.7212 6.41567 33.2235 6.41567C34.7257 6.41567 35.8521 7.5479 35.8521 9.05793L35.8521 19.4388C35.8521 20.9489 34.7257 22.0811 33.2235 22.0811C31.7212 22.0811 30.5948 20.9489 30.5948 19.4388L30.5948 9.05793ZM26.0881 7.35959L26.0881 15.4746C25.149 15.0968 24.21 14.9085 23.2722 14.7203L20.8309 14.7203L20.8309 7.3595C20.8309 5.84943 21.9572 4.71723 23.4595 4.71723C24.9617 4.71723 26.0881 5.84946 26.0881 7.3595L26.0881 7.35959Z" fill="black"/>
</symbol><symbol id="scissors" viewBox="0 0 67 87">
<path d="M60.1251 9.07443C58.3159 9.04331 56.3827 9.66448 55.1474 10.9922L42.2864 23.0747L48.8535 10.2639C50.6285 6.90386 49.1733 2.51445 45.8276 0.733374C42.3113 -0.976566 38.1071 0.412323 36.3327 3.77064L24.6075 26.5892C21.5214 25.898 18.1635 26.9269 15.7888 29.3388L9.1016 36.1901C5.49154 39.9297 3.7829 44.8644 4.12463 49.9272L5.0632 62.5495L0.478174 68.708C-0.321752 69.6492 -0.0867318 71.1521 0.949381 71.7133C1.98433 72.275 3.3844 72.2803 3.94348 71.2403L9.06167 64.4555C9.49765 64.0701 9.45133 63.4889 9.40569 62.906L8.34879 49.5317C8.09967 45.6311 9.321 41.9057 12.1309 39.1073L18.8181 32.2559C20.7567 30.2294 23.7243 30.1688 25.9386 31.6305L26.0101 31.7999L34.9586 38.8108C36.1371 39.7125 36.2029 41.2861 35.475 42.398C35.1831 43.1245 34.5056 43.4127 33.7578 43.531C33.01 43.6493 32.2862 43.3563 31.9018 42.9175L25.793 37.9029C24.9268 37.2694 23.6967 37.1918 22.8252 37.9636L19.3126 41.4619C18.4411 42.2337 18.4353 43.6379 19.203 44.5131C19.972 45.3878 21.3709 45.3936 22.2428 44.623L24.0841 42.8377C28.0594 50.363 23.09 56.0825 22.8225 56.396C22.0225 57.3372 22.0172 58.7425 22.9549 59.5454C22.9549 59.5454 23.0265 59.7148 23.1952 59.643C24.0614 60.2765 25.4615 60.2818 26.0914 59.4129C28.1267 57.144 30.5587 52.5039 30.0031 46.9311C31.2795 47.5899 32.822 47.9357 34.3192 47.6998C35.067 47.5815 35.8165 47.4639 36.5907 46.9333C36.9494 47.7827 37.3795 48.8016 38.0769 49.5069C38.3893 49.7751 38.7023 50.0416 39.0146 50.3098C40.4346 51.3086 42.2185 51.7515 43.7875 51.685C43.9257 53.4303 44.499 54.788 45.5802 55.9309C45.8926 56.1991 46.2056 56.4656 46.518 56.7338C47.3841 57.3673 48.3482 57.758 49.2396 57.9797C46.4437 63.1756 43.0225 67.8369 40.4992 71.3141C38.0729 74.5501 34.1816 76.2055 30.0806 75.9461L27.6203 75.7909C26.8005 75.7386 26.123 76.0268 25.5903 76.6545L20.3018 83.5147C19.5019 84.4559 19.7369 85.9588 20.773 86.52C21.7107 87.323 23.2081 87.0871 23.7671 86.0471L28.3522 79.8886L29.5823 79.9662C35.1549 80.4003 40.5687 78.0971 43.8934 73.6782C47.1195 69.5011 51.4644 63.2451 54.6749 56.6708C55.0136 56.5266 55.1108 56.2854 55.4496 56.1413L60.8756 51.0283C63.7571 48.3994 63.8725 43.9442 61.2529 41.0507C60.1716 39.9077 58.8952 39.2489 57.4248 39.0737C57.5221 38.8325 57.5485 38.4202 57.6457 38.179C57.6767 36.363 57.0578 34.4226 55.7351 33.1826C55.0377 32.4773 54.4135 31.942 53.6897 31.649L64.7106 21.351C66.188 20.1216 66.8695 18.4286 66.9989 16.371C67.0299 14.5551 66.411 12.6146 65.0883 11.3746C63.6937 9.96111 62.0065 9.27583 60.1254 9.07408L60.1251 9.07443ZM28.7749 28.4219C28.7749 28.4219 28.7033 28.2525 28.5346 28.3243L39.9902 5.8204C40.6466 4.53918 42.2411 4.06208 43.5175 4.72093C43.7578 4.81854 43.7578 4.81854 43.8298 4.98914C44.7675 5.79207 45.1725 7.22267 44.6128 8.26147L32.6961 31.5625L28.7749 28.4219ZM43.0553 47.5896C42.4042 47.4655 41.7536 47.3426 41.2965 46.7349C40.2868 45.7614 40.3178 43.9454 41.3597 43.1025L48.7958 36.1323C49.4006 35.6751 49.9093 35.4587 50.6571 35.3404C51.2361 35.2939 51.7184 35.4899 52.1023 35.9275C52.1738 36.0969 52.3426 36.0251 52.4147 36.1957C52.8701 36.8027 53.0856 37.3133 53.0347 38.1357C52.9111 38.7892 52.7886 39.4423 52.1832 39.901L44.7471 46.8713C44.3827 47.4261 43.7063 47.7137 43.0553 47.5896ZM58.7939 46.1038C58.6702 46.7573 58.5478 47.4103 57.9423 47.8691L52.5163 52.9821C51.9116 53.4393 51.4029 53.6557 50.6551 53.774C49.9073 53.8923 49.3534 53.5269 48.8963 52.9192C48.4409 52.3122 48.2253 51.8016 48.1075 51.051C48.2311 50.3975 48.5235 49.6721 48.959 49.2856L54.385 44.1726C55.3549 43.1591 57.164 43.1902 58.0038 44.2361C58.6303 44.7703 58.8455 45.2797 58.7939 46.1038ZM62.3874 16.3264C62.2637 16.9799 62.1413 17.633 61.5358 18.0917L39.7613 38.3741C39.3311 37.3553 38.6601 36.2377 37.7224 35.4347L36.4723 34.3635L58.0771 14.1534C58.6818 13.6963 59.1905 13.4799 59.9383 13.3616C60.5894 13.4857 61.24 13.6086 61.6971 14.2163C62.2245 14.9939 62.4395 15.5035 62.3874 16.3264Z" fill="black"/>
</symbol></svg>