<svg width="160" height="107" viewBox="0 0 160 107" fill="none" xmlns="http://www.w3.org/2000/svg">
<path d="M102.062 102.187V93.6001H99.3254V102.187H95.5259V93.6001H92.7891V102.187V104.773H100.935V106.928H103.672V102.187H102.062Z" fill="#FA7DFF"/>
<path d="M116.643 96.185V93.5991H108.883V104.772H116.643V102.186H111.62V100.431H116.192V97.845H111.62V96.185H116.643Z" fill="#FA7DFF"/>
<path d="M129.083 93.5991V97.7807H124.753V93.5991H122.016V104.772H124.753V100.367H129.083V104.772H131.82V93.5991H129.083Z" fill="#FA7DFF"/>
<path d="M145.902 93.5991H137.031V96.185H140.09V104.772H142.827V96.185H145.902V93.5991Z" fill="#FA7DFF"/>
<path d="M155.83 98.7396H153.85V96.186H155.83C156.764 96.186 157.231 96.6166 157.231 97.4626C157.231 98.3086 156.764 98.7396 155.83 98.7396ZM155.943 93.6001H151.113V104.773H153.85V101.325H155.943C158.326 101.325 160 99.9046 160 97.4309C160 94.9566 158.326 93.6001 155.943 93.6001" fill="#FA7DFF"/>
<path d="M7.30874 93.6719H0V104.845H2.73647V96.2578H7.30874V93.6719Z" fill="white"/>
<path d="M15.1121 99.9447L16.3194 96.4652L17.5268 99.9447H15.1121ZM19.2334 104.845H22.131L18.042 93.6719H14.5968L10.5078 104.845H13.4055L14.2105 102.53H18.4284L19.2334 104.845Z" fill="white"/>
<path d="M34.0072 93.6717L29.7893 100.711L29.9985 98.3485V93.6717H27.2617V104.845H30.3689L34.6031 97.8057L34.3776 100.168V104.845H37.1144V93.6717H34.0072ZM32.1881 92.5546C33.5886 92.5546 34.9248 91.6128 34.9248 89.9528V89.4581H32.7999V89.8891C32.8031 89.9717 32.7894 90.0542 32.7596 90.1315C32.7299 90.2088 32.6848 90.2793 32.6269 90.3389C32.569 90.3985 32.4996 90.4459 32.4229 90.4783C32.3461 90.5107 32.2635 90.5273 32.1801 90.5273C32.0966 90.5273 32.014 90.5107 31.9373 90.4783C31.8605 90.4459 31.7911 90.3985 31.7332 90.3389C31.6754 90.2793 31.6302 90.2088 31.6005 90.1315C31.5708 90.0542 31.5571 89.9717 31.5602 89.8891V89.4581H29.4353V89.9528C29.4353 91.6128 30.7715 92.5546 32.1881 92.5546Z" fill="white"/>
<path d="M46.9309 101.397L47.7519 96.2578H50.2149V102.259H46.7537C46.818 101.988 46.8826 101.7 46.9309 101.397ZM52.9517 102.259V93.6719H45.4338L44.2425 101.126C44.2119 101.535 44.0669 101.927 43.8238 102.259H42.2461V107H44.9829V104.845H51.8247V107H54.5617V102.259H52.9517Z" fill="white"/>
<path d="M63.9754 99.9447L65.1827 96.4652L66.3901 99.9447H63.9754ZM68.0967 104.845H70.9943L66.9053 93.6719H63.4601L59.3711 104.845H62.2688L63.0738 102.53H67.2917L68.0967 104.845Z" fill="white"/>
<path d="M82.8705 93.6717L78.6526 100.711L78.8618 98.3485V93.6717H76.125V104.845H79.2321L83.4664 97.8057L83.2409 100.168V104.845H85.9777V93.6717H82.8705ZM81.0513 92.5546C82.4519 92.5546 83.7881 91.6128 83.7881 89.9528V89.4581H81.6632V89.8891C81.6663 89.9717 81.6527 90.0542 81.6229 90.1315C81.5932 90.2088 81.5481 90.2793 81.4902 90.3389C81.4323 90.3985 81.3629 90.4459 81.2861 90.4783C81.2094 90.5107 81.1268 90.5273 81.0433 90.5273C80.9599 90.5273 80.8773 90.5107 80.8006 90.4783C80.7238 90.4459 80.6544 90.3985 80.5965 90.3389C80.5386 90.2793 80.4935 90.2088 80.4638 90.1315C80.434 90.0542 80.4204 89.9717 80.4235 89.8891V89.4581H78.2986V89.9528C78.2986 91.6128 79.6348 92.5546 81.0513 92.5546Z" fill="white"/>
<path fill-rule="evenodd" clip-rule="evenodd" d="M56.2984 49.9636C55.865 50.3177 55.5961 50.8581 55.426 51.6211C55.21 52.7685 55.1401 53.9382 55.2181 55.1028C55.2664 56.1171 55.3821 57.1271 55.5644 58.1263C55.6084 58.2992 55.6536 58.4683 55.6998 58.6335C56.0185 59.7756 56.3722 60.7049 56.8936 61.3661C57.4314 62.012 58.1701 62.4628 58.9939 62.6479C60.3352 62.9636 61.7112 63.1106 63.0894 63.0856C64.1796 63.0907 65.2934 63.0337 66.327 62.9377L66.3279 62.9373L66.3341 62.937C67.128 62.8605 67.8746 62.7629 68.5264 62.6522C69.7045 62.4524 70.4698 62.2322 70.9755 61.9022C71.4188 61.6134 71.7642 61.1456 72.142 60.424C72.6727 59.359 73.1196 58.255 73.4788 57.1217C73.8759 55.9456 74.1864 54.7424 74.4081 53.5218C74.533 52.9642 74.5476 52.3879 74.4509 51.8249C74.3625 51.5445 74.2032 51.2914 73.9879 51.0896C73.8515 50.9454 73.7054 50.8106 73.5505 50.6861C73.3121 50.5459 73.0659 50.4191 72.8132 50.3061C71.851 49.8945 70.8447 49.593 69.8137 49.4073C68.1707 49.1085 66.512 48.9018 64.8456 48.7882C64.6508 48.7733 64.4575 48.7588 64.2654 48.7449L64 48.7409C62.2871 48.7012 60.5738 48.8041 58.8783 49.0487C57.647 49.2518 56.8158 49.5403 56.2984 49.9636H56.2984ZM108.635 58.9107C108.551 59.3609 108.457 59.7948 108.354 60.2053C107.963 61.7687 107.434 63.059 106.521 64.1222C105.565 65.2341 104.279 66.0024 102.429 66.4363C100.752 66.7769 99.0416 66.9274 97.3304 66.885C96.1639 66.877 94.9864 66.8145 93.8926 66.7157C92.9359 66.6315 92.0423 66.5175 91.2749 66.3872C89.5849 66.1009 88.3864 65.7199 87.3882 65.0853C86.3245 64.4088 85.6053 63.5351 84.9114 62.2896C84.2911 61.1294 83.7582 59.9253 83.3171 58.6872C82.8246 57.3583 82.4168 56.0001 82.0959 54.6206C82.0454 54.3943 82.0013 54.1764 81.9636 53.967C81.3697 53.8189 80.7601 53.7413 80.1478 53.7358C79.5776 53.7695 79.0155 53.8857 78.4793 54.0808C78.4464 54.2549 78.4093 54.4349 78.368 54.6206C78.0469 56.0001 77.6391 57.3582 77.1468 58.6872C76.7059 59.9254 76.1728 61.1295 75.5521 62.2896C74.8585 63.5351 74.1396 64.4088 73.0756 65.0853C72.0777 65.7196 70.879 66.1009 69.189 66.3872C68.4215 66.5175 67.5279 66.6315 66.5715 66.7157C65.4774 66.8145 64.2996 66.877 63.1334 66.885C61.4222 66.9274 59.7118 66.7769 58.0349 66.4363C56.1846 66.0023 54.8988 65.2341 53.9431 64.1222C53.0295 63.059 52.5013 61.7687 52.11 60.2053C52.0073 59.7948 51.9128 59.3609 51.8289 58.9107C51.5529 57.8152 51.3176 56.6371 51.1235 55.4861C50.8236 53.7072 50.6172 51.9935 50.5126 50.7391C50.4285 49.8605 50.4016 48.9774 50.432 48.0953C50.4461 47.5759 50.5279 47.0605 50.6753 46.5619C50.918 45.7833 51.2121 45.3185 52.0691 44.9556C52.5943 44.7646 53.151 44.673 53.7102 44.6853C54.2793 44.6625 55.1332 44.6469 56.3498 44.6561C57.3083 44.6637 58.456 44.686 59.8082 44.7311C61.2927 44.7808 63.0153 44.8546 64.6641 44.9726C66.5005 45.0072 68.3322 45.1677 70.1463 45.453C71.5861 45.668 72.9868 46.0896 74.3042 46.7046C74.8404 46.9649 75.3489 47.278 75.8219 47.6394C76.3469 47.9761 76.8296 48.3738 77.2597 48.8239C77.6559 49.2309 77.9821 49.6996 78.2255 50.2112C78.8251 50.06 79.4396 49.9745 80.0579 49.9563C80.7981 49.9446 81.5374 50.0125 82.2629 50.1588C82.5044 49.6678 82.822 49.2174 83.2042 48.8239C83.6342 48.3738 84.1169 47.9761 84.6419 47.6394C85.1149 47.2781 85.6234 46.9649 86.1596 46.7046C87.477 46.0896 88.8777 45.668 90.3176 45.453C92.1315 45.1677 93.9631 45.0072 95.7994 44.9726C97.4485 44.8546 99.1711 44.7808 100.656 44.7311C102.008 44.686 103.156 44.6637 104.114 44.6561C105.331 44.6469 106.184 44.6625 106.754 44.6853C107.313 44.673 107.869 44.7646 108.395 44.9556C109.252 45.3185 109.546 45.7833 109.788 46.5619C109.936 47.0605 110.018 47.5759 110.031 48.0953C110.062 48.9774 110.035 49.8605 109.951 50.7391C109.847 51.9935 109.64 53.7072 109.34 55.4861C109.146 56.6371 108.911 57.8152 108.635 58.9107H108.635ZM96.1984 48.7449C96.0061 48.7586 95.8126 48.773 95.6179 48.7882C93.9515 48.9019 92.2929 49.1086 90.65 49.4073C89.6191 49.5929 88.6129 49.8944 87.6509 50.3061C87.398 50.419 87.1518 50.5459 86.9132 50.6861C86.7584 50.8107 86.6123 50.9455 86.4758 51.0896C86.2606 51.2914 86.1012 51.5445 86.0129 51.8249C85.9161 52.3879 85.9306 52.9642 86.0556 53.5218C86.2771 54.7424 86.5875 55.9456 86.9846 57.1217C87.3439 58.255 87.791 59.359 88.3218 60.424C88.6992 61.1456 89.045 61.6134 89.4882 61.9022C89.9939 62.2322 90.7592 62.4524 91.9374 62.6522C92.5892 62.7629 93.3358 62.8605 94.1297 62.937L94.1359 62.9373L94.1365 62.9377C95.1703 63.0337 96.2839 63.0907 97.3743 63.0856C98.7526 63.1106 100.129 62.9636 101.47 62.6479C102.294 62.4628 103.032 62.012 103.57 61.3661C104.092 60.7049 104.445 59.7756 104.764 58.6335C104.81 58.4682 104.855 58.2991 104.899 58.1263C105.081 57.1271 105.197 56.1171 105.246 55.1028C105.323 53.9382 105.254 52.7685 105.038 51.6211C104.868 50.8581 104.599 50.3177 104.165 49.9636C103.648 49.5403 102.817 49.2518 101.585 49.0487C99.8899 48.8041 98.1767 48.7012 96.4638 48.7409L96.1984 48.7449ZM70.8479 23.5513C72.5378 24.6221 74.2275 25.6926 77.136 26.0838C80.0441 26.4748 84.1706 26.1866 87.1178 24.6882C90.065 23.1896 91.8325 20.4808 92.5065 17.5283C93.1804 14.5755 92.7602 11.3793 90.6242 9.19995C88.4879 7.02028 84.6351 5.85801 82.3803 4.49415C80.1256 3.13029 79.4685 1.56515 78.8118 0C77.6773 2.17815 76.5435 4.3566 77.2264 6.94678C77.909 9.53695 80.4089 12.5395 81.2367 15.1062C81.5904 16.1332 81.6662 17.2342 81.4565 18.2993C81.2468 19.3645 80.7589 20.3564 80.0416 21.1761C78.8619 22.547 77.346 23.157 75.7576 23.4263C74.1694 23.6952 72.5086 23.6233 70.8479 23.5513" fill="white"/>
</svg>
