<svg width="141" height="24" viewBox="0 0 141 24" fill="none" xmlns="http://www.w3.org/2000/svg">
<path d="M89.3019 11.424H90.7081V15.6043H88.316V13.7014H81.1934V11.424V3.84277H83.5854V11.424H86.9098V3.84277H89.3019V11.424ZM102.065 6.12783H97.6702V7.58751H101.667V9.87257H97.6702V11.424H102.065V13.7014H95.2705V3.84277H102.065V6.12783ZM112.947 3.84277H115.339V13.7014H112.947V9.81907H109.157V13.7014H106.765V3.84277H109.157V7.53402H112.947V3.84277ZM127.659 3.84277V6.12783H124.969V13.7014H122.577V6.12783H119.902V3.84277H127.659ZM136.447 3.84277C137.517 3.84277 138.381 4.14082 139.023 4.72928C139.672 5.32538 140.001 6.15076 140.001 7.22068C140.001 8.29825 139.672 9.13891 139.015 9.74265C138.366 10.354 137.51 10.6597 136.447 10.6597H134.613V13.7014H132.221V3.84277H136.447ZM136.348 8.38232C137.166 8.38232 137.578 8.0002 137.578 7.25125C137.578 6.5023 137.166 6.12783 136.348 6.12783H134.613V8.38232H136.348Z" fill="#FF8CFF"/>
<path d="M6.39663 3.91176V6.18917H2.39205V13.7704H0V3.91176H6.39663ZM16.8284 13.7704L16.1253 11.7299H12.4341L11.731 13.7704H9.19372L12.7703 3.91176H15.7891L19.3657 13.7704H16.8284ZM13.2212 9.4448H15.3382L14.2759 6.37259L13.2212 9.4448ZM28.162 2.9259C27.5047 2.9259 26.9392 2.71955 26.4654 2.29922C25.9916 1.88654 25.7546 1.32865 25.7546 0.625554V0.189941H27.6117V0.572058C27.6117 0.740189 27.6652 0.877751 27.7722 0.977101C27.8716 1.08409 28.0015 1.12995 28.162 1.12995C28.3225 1.12995 28.4524 1.08409 28.5517 0.977101C28.6511 0.877751 28.6969 0.740189 28.6969 0.572058V0.189941H30.5617V0.625554C30.5617 1.32865 30.3248 1.88654 29.8509 2.29922C29.3771 2.71955 28.8116 2.9259 28.162 2.9259ZM29.7592 3.91176H32.4723V13.7704H30.0802V9.6435L30.2789 7.55715L26.5724 13.7704H23.8517V3.91176H26.2514V8.03861L26.068 10.1173L29.7592 3.91176ZM46.3278 11.4853H47.7416V15.6733H45.3419V13.7704H39.358V15.6733H36.9659V11.4853H38.3416C38.502 11.3095 38.6243 10.9733 38.7084 10.4842L39.7554 3.91176H46.3278V11.4853ZM41.0622 10.7287C41.0317 10.9351 40.9858 11.1873 40.9094 11.4853H43.9357V6.18917H41.7806L41.0622 10.7287ZM59.5796 13.7704L58.8765 11.7299H55.1853L54.4822 13.7704H51.9449L55.5292 3.91176H58.5402L62.1168 13.7704H59.5796ZM55.9801 9.4448H58.0893L57.0347 6.37259L55.9801 9.4448ZM70.9208 2.9259C70.2636 2.9259 69.698 2.71955 69.2242 2.29922C68.7427 1.88654 68.5058 1.32865 68.5058 0.625554V0.189941H70.3706V0.572058C70.3706 0.740189 70.4241 0.877751 70.5234 0.977101C70.6304 1.08409 70.7603 1.12995 70.9208 1.12995C71.0813 1.12995 71.2036 1.08409 71.3029 0.977101C71.4023 0.877751 71.4558 0.740189 71.4558 0.572058V0.189941H73.3129V0.625554C73.3129 1.32865 73.0759 1.88654 72.6021 2.29922C72.1283 2.71955 71.5628 2.9259 70.9208 2.9259ZM72.5104 3.91176H75.2311V13.7704H72.8314V9.6435L73.0301 7.55715L69.3236 13.7704H66.6105V3.91176H69.0026V8.03861L68.8192 10.1173L72.5104 3.91176Z" fill="white"/>
<path d="M0 23H139.662" stroke="white" stroke-width="1.77215"/>
</svg>
