<svg width="206" height="42" viewBox="0 0 206 42" fill="none" xmlns="http://www.w3.org/2000/svg">
<path d="M131.078 17.4118H133.142V23.6842H129.631V20.8289H119.176V17.4118V6.03662H122.687V17.4118H127.567V6.03662H131.078V17.4118ZM149.811 9.46523H143.361V11.6554H149.228V15.084H143.361V17.4118H149.811V20.8289H139.839V6.03662H149.811V9.46523ZM165.785 6.03662H169.296V20.8289H165.785V15.0037H160.221V20.8289H156.71V6.03662H160.221V11.5751H165.785V6.03662ZM187.379 6.03662V9.46523H183.43V20.8289H179.919V9.46523H175.993V6.03662H187.379ZM200.279 6.03662C201.85 6.03662 203.117 6.48383 204.06 7.36678C205.013 8.2612 205.495 9.49963 205.495 11.105C205.495 12.7218 205.013 13.9832 204.048 14.8891C203.095 15.8064 201.839 16.2651 200.279 16.2651H197.587V20.8289H194.076V6.03662H200.279ZM200.133 12.848C201.334 12.848 201.939 12.2746 201.939 11.1509C201.939 10.0271 201.334 9.46523 200.133 9.46523H197.587V12.848H200.133Z" fill="#FF8CFF"/>
<path d="M9.38916 6.14005V9.55719H3.51112V20.9324H0V6.14005H9.38916ZM24.7012 20.9324L23.6692 17.8707H18.2511L17.2191 20.9324H13.4948L18.7447 6.14005H23.1756L28.4255 20.9324H24.7012ZM19.4065 14.4421H22.5138L20.9545 9.8324L19.4065 14.4421ZM41.337 4.66082C40.3723 4.66082 39.5422 4.35121 38.8467 3.72053C38.1512 3.10132 37.8034 2.26423 37.8034 1.20928V0.555664H40.5293V1.12901C40.5293 1.38128 40.6078 1.58769 40.7649 1.73676C40.9107 1.89729 41.1014 1.96609 41.337 1.96609C41.5726 1.96609 41.7633 1.89729 41.9091 1.73676C42.0549 1.58769 42.1222 1.38128 42.1222 1.12901V0.555664H44.8593V1.20928C44.8593 2.26423 44.5116 3.10132 43.8161 3.72053C43.1206 4.35121 42.2905 4.66082 41.337 4.66082ZM43.6815 6.14005H47.6637V20.9324H44.1526V14.7402L44.4443 11.6098L39.0037 20.9324H35.0102V6.14005H38.5326V12.3322L38.2634 15.4512L43.6815 6.14005ZM68.0013 17.5038H70.0766V23.7876H66.5542V20.9324H57.7708V23.7876H54.2597V17.5038H56.2789C56.5144 17.24 56.6939 16.7355 56.8173 16.0016L58.3541 6.14005H68.0013V17.5038ZM60.2723 16.3685C60.2275 16.6781 60.1602 17.0566 60.048 17.5038H64.4902V9.55719H61.3268L60.2723 16.3685ZM87.4527 20.9324L86.4207 17.8707H81.0025L79.9705 20.9324H76.2463L81.5073 6.14005H85.9271L91.1769 20.9324H87.4527ZM82.1692 14.4421H85.2652L83.7172 9.8324L82.1692 14.4421ZM104.1 4.66082C103.135 4.66082 102.305 4.35121 101.609 3.72053C100.903 3.10132 100.555 2.26423 100.555 1.20928V0.555664H103.292V1.12901C103.292 1.38128 103.37 1.58769 103.516 1.73676C103.673 1.89729 103.864 1.96609 104.1 1.96609C104.335 1.96609 104.515 1.89729 104.661 1.73676C104.806 1.58769 104.885 1.38128 104.885 1.12901V0.555664H107.611V1.20928C107.611 2.26423 107.263 3.10132 106.568 3.72053C105.872 4.35121 105.042 4.66082 104.1 4.66082ZM106.433 6.14005H110.426V20.9324H106.904V14.7402L107.196 11.6098L101.755 20.9324H97.7729V6.14005H101.284V12.3322L101.015 15.4512L106.433 6.14005Z" fill="white"/>
<line y1="40.4443" x2="205" y2="40.4443" stroke="white" stroke-width="2"/>
</svg>
