<svg width="64" height="64" viewBox="0 0 64 64" fill="none" xmlns="http://www.w3.org/2000/svg">
<path fill-rule="evenodd" clip-rule="evenodd" d="M31.8194 49.8158L44.6724 46.355L47.6388 14.2222H16L18.966 46.355L31.8194 49.8158ZM21.7778 20.7556L22.2573 24.6361L32.3401 24.6361L22.6041 28.6907L22.9092 32.484L22.9161 32.481L22.9163 32.484L36.5775 32.5273L36.2722 37.5849L31.8105 38.8411V38.8372L31.7738 38.8474L27.4646 37.7593L27.2029 34.62L23.178 34.6201L23.7012 40.6806L31.8105 43.0784V43.0741L31.8251 43.0784L39.8911 40.724L40.9375 28.6905H31.7887L41.2719 24.636L41.6641 20.7556L41.659 20.7577L41.6593 20.7556H21.7778Z" fill="#7DBCCA"/>
</svg>
