<svg width="32" height="32" viewBox="0 0 32 32" fill="none" xmlns="http://www.w3.org/2000/svg">
<path d="M12.9911 25.6369C14.7648 25.6369 16.2043 24.1873 16.2043 22.4012V19.1653H12.9911C11.2174 19.1653 9.77783 20.615 9.77783 22.4012C9.77783 24.1873 11.2174 25.6369 12.9911 25.6369Z" fill="#448A9A"/>
<path d="M9.77783 15.9295C9.77783 14.1434 11.2174 12.6938 12.9911 12.6938H16.2043V19.1653H12.9911C11.2174 19.1653 9.77783 17.7157 9.77783 15.9295Z" fill="#7DBCCA"/>
<path d="M9.77783 9.45795C9.77783 7.67184 11.2174 6.22222 12.9911 6.22222H16.2043V12.6938H12.9911C11.2174 12.6938 9.77783 11.2441 9.77783 9.45795Z" fill="#448A9A"/>
<path d="M16.2014 6.22222H19.4147C21.1883 6.22222 22.6279 7.67184 22.6279 9.45795C22.6279 11.2441 21.1883 12.6938 19.4147 12.6938H16.2014V6.22222Z" fill="#7DBCCA"/>
<path d="M22.6279 15.9295C22.6279 17.7157 21.1883 19.1653 19.4147 19.1653C17.6409 19.1653 16.2014 17.7157 16.2014 15.9295C16.2014 14.1434 17.6409 12.6938 19.4147 12.6938C21.1883 12.6938 22.6279 14.1434 22.6279 15.9295Z" fill="#448A9A"/>
</svg>
