<svg width="32" height="32" viewBox="0 0 32 32" fill="none" xmlns="http://www.w3.org/2000/svg">
<path d="M29.8569 14.7168L17.2826 2.14324C16.5586 1.41892 15.3842 1.41892 14.6596 2.14324L12.0488 4.75468L15.3607 8.06663C16.1305 7.80649 17.0131 7.98106 17.6264 8.59474C18.2436 9.21219 18.4166 10.1023 18.1499 10.8749L21.3424 14.0671C22.115 13.8007 23.0057 13.9731 23.6226 14.5908C24.4845 15.4528 24.4845 16.8494 23.6226 17.7119C22.76 18.5741 21.3634 18.5741 20.5005 17.7119C19.8524 17.0631 19.6919 16.1103 20.0207 15.3117L17.0432 12.3345V20.1692C17.2532 20.2732 17.4516 20.4117 17.6264 20.5866C18.4884 21.4485 18.4884 22.8452 17.6264 23.708C16.7645 24.5696 15.367 24.5696 14.5057 23.708C13.6438 22.8449 13.6438 21.4482 14.5057 20.5866C14.7188 20.3738 14.9655 20.2127 15.2288 20.1049V12.1972C14.9655 12.0894 14.7194 11.9299 14.5057 11.7155C13.8528 11.063 13.6958 10.1045 14.0305 9.30277L10.7656 6.03721L2.14334 14.6585C1.41902 15.3835 1.41902 16.5579 2.14334 17.2822L14.7182 29.8561C15.4422 30.5805 16.6163 30.5805 17.3412 29.8561L29.8569 17.3405C30.5812 16.6162 30.5812 15.4412 29.8569 14.7168Z" fill="#234A52"/>
</svg>
