<svg width="96" height="96" viewBox="0 0 96 96" fill="none" xmlns="http://www.w3.org/2000/svg">
<path fill-rule="evenodd" clip-rule="evenodd" d="M48.0155 77.2286L59.7915 41.2665H36.2395L48.0155 77.2286Z" fill="#7DBCCA"/>
<path fill-rule="evenodd" clip-rule="evenodd" d="M48.0194 77.2286L36.2434 41.2665H19.7395L48.0194 77.2286Z" fill="#D0F6FF"/>
<path fill-rule="evenodd" clip-rule="evenodd" d="M19.7395 41.2665L16.161 52.195C15.8346 53.1918 16.1921 54.2838 17.0466 54.8998L48.0193 77.2286L19.7395 41.2665Z" fill="#448A9A"/>
<path fill-rule="evenodd" clip-rule="evenodd" d="M19.7395 41.2664H36.2434L29.1506 19.6067C28.7858 18.4921 27.1967 18.4924 26.8319 19.6067L19.7395 41.2664Z" fill="#7DBCCA"/>
<path fill-rule="evenodd" clip-rule="evenodd" d="M48.0205 77.2286L59.7965 41.2665H76.3002L48.0205 77.2286Z" fill="#D0F6FF"/>
<path fill-rule="evenodd" clip-rule="evenodd" d="M76.3002 41.2665L79.8789 52.195C80.2053 53.1918 79.8477 54.2838 78.9933 54.8998L48.0205 77.2286L76.3002 41.2665Z" fill="#448A9A"/>
<path fill-rule="evenodd" clip-rule="evenodd" d="M76.2957 41.2664H59.792L66.8845 19.6067C67.2493 18.4921 68.8384 18.4924 69.2032 19.6067L76.2957 41.2664Z" fill="#7DBCCA"/>
</svg>
