<svg width="64" height="64" viewBox="0 0 64 64" fill="none" xmlns="http://www.w3.org/2000/svg">
<path fill-rule="evenodd" clip-rule="evenodd" d="M31.9593 46.3471C29.1781 46.3471 27.029 45.9293 25.9955 45.6804C25.2889 45.5101 24.7214 45.3339 24.2903 45.1529L25.6686 47.5078L26.2078 54.8653C26.2078 55.69 28.8281 56.3586 32.0603 56.3586C35.2924 56.3586 37.9127 55.69 37.9127 54.8653L38.3395 47.4276L39.6437 45.146C39.2108 45.3295 38.6382 45.508 37.9227 45.6804C36.8892 45.9293 34.7402 46.3471 31.9593 46.3471ZM39.6885 22.4056C37.6473 22.6905 34.9381 22.8477 32.0603 22.8477C29.1824 22.8477 26.4732 22.6905 24.432 22.4056C23.421 22.2642 22.621 22.0977 22.0544 21.9106C21.9193 21.866 21.6901 21.7897 21.4697 21.6683L22.7344 33.3076C22.7932 33.1071 22.8587 32.9069 22.9312 32.7074C23.0796 32.2987 23.2514 31.8989 23.4462 31.5085C23.6414 31.1183 23.8537 30.7492 24.0832 30.4017C24.3125 30.0543 24.5568 29.7343 24.8156 29.442C25.0747 29.1497 25.3403 28.8984 25.6131 28.6877C25.8857 28.4772 26.1609 28.3126 26.4387 28.1942C26.7168 28.0756 26.992 28.0162 27.2645 28.0162C27.5787 28.0162 27.8825 28.1021 28.176 28.2738C28.4693 28.4456 28.7434 28.7236 28.9991 29.1078C29.0576 29.1937 29.0949 29.2806 29.1102 29.3684C29.1258 29.4564 29.1335 29.5391 29.1335 29.6168C29.1335 29.8008 29.0896 29.946 29.0016 30.0521C28.9136 30.1585 28.8092 30.2116 28.6885 30.2116C28.5778 30.2116 28.4752 30.1533 28.3803 30.0369C28.2853 29.9204 28.1792 29.7538 28.0619 29.5371C27.9513 29.3409 27.8297 29.1988 27.6969 29.1108C27.5639 29.023 27.4199 28.9791 27.2645 28.9791C27.0229 28.9791 26.765 29.0792 26.4907 29.2795C26.2162 29.4797 25.9443 29.7446 25.6752 30.0737C25.406 30.4027 25.1479 30.7789 24.9011 31.202C24.6544 31.6251 24.4359 32.0584 24.2462 32.5019C24.0563 32.9457 23.9054 33.3832 23.7932 33.8145C23.6811 34.2456 23.6249 34.6329 23.6249 34.9762C23.6249 35.0909 23.6329 35.2086 23.6482 35.3289C23.6638 35.4497 23.6931 35.559 23.7363 35.6571C23.7794 35.7553 23.838 35.836 23.9122 35.8991C23.9865 35.9627 24.0805 35.9942 24.1943 35.9942C24.3221 35.9942 24.467 35.9513 24.6295 35.8655C24.7916 35.7798 24.9598 35.6673 25.134 35.5284C25.3084 35.3892 25.4835 35.2319 25.6595 35.0561C25.8357 34.8804 25.9996 34.7026 26.1515 34.5225C26.3033 34.3428 26.4379 34.17 26.5552 34.0045C26.6725 33.839 26.7605 33.6948 26.8194 33.5721L27.3008 32.1309C27.3595 31.9757 27.4363 31.8653 27.5312 31.7999C27.6261 31.7345 27.7237 31.7017 27.8238 31.7017C27.872 31.7017 27.9203 31.7099 27.9687 31.7263C28.0171 31.7426 28.0601 31.7682 28.0981 31.8029C28.1362 31.8377 28.1664 31.8825 28.1888 31.9378C28.2112 31.9929 28.2224 32.0575 28.2224 32.1309C28.2224 32.3272 28.2051 32.511 28.1707 32.6829C28.1362 32.8548 28.0921 33.0223 28.0386 33.1858C27.9851 33.3492 27.9255 33.5138 27.8599 33.6793C27.7943 33.845 27.7305 34.0177 27.6684 34.1977C27.6546 34.2182 27.6297 34.2824 27.5932 34.3906C27.5571 34.4991 27.5132 34.6353 27.4613 34.7985C27.4096 34.9622 27.3534 35.1449 27.293 35.3474C27.2325 35.5497 27.1707 35.7561 27.1068 35.9668C27.0428 36.1773 26.9817 36.3837 26.923 36.5862C26.8642 36.7885 26.8114 36.9714 26.765 37.135C26.7184 37.2984 26.6796 37.4353 26.6485 37.5458C26.6174 37.6562 26.5984 37.7215 26.5915 37.7423C26.5742 37.8073 26.5465 37.8801 26.5088 37.9597C26.4707 38.0393 26.4259 38.1151 26.374 38.1865C26.3223 38.258 26.2654 38.3176 26.2032 38.3643C26.1411 38.4113 26.0773 38.4349 26.0115 38.4349C25.9011 38.4349 25.821 38.3981 25.771 38.3247C25.7209 38.2511 25.696 38.1161 25.696 37.9201V37.8342C25.696 37.8054 25.6976 37.7746 25.701 37.7423C25.7043 37.6767 25.7303 37.554 25.7788 37.3739C25.827 37.1942 25.8848 36.991 25.9522 36.764C26.0195 36.5371 26.0921 36.3019 26.1698 36.0587C26.2471 35.8155 26.3171 35.5979 26.3794 35.4057C26.1963 35.6102 25.9979 35.8136 25.784 36.0159C25.5698 36.2182 25.3506 36.4002 25.1264 36.5615C24.9019 36.7231 24.6759 36.855 24.4482 36.9572C24.2204 37.0593 24.0012 37.1106 23.7906 37.1106C23.549 37.1106 23.3411 37.0573 23.1666 36.951C23.1353 36.9316 23.1056 36.9101 23.0759 36.8886L23.7797 44.2671C23.9628 44.7263 27.4119 45.8543 31.9593 45.8543C36.5088 45.8543 39.9589 44.725 40.139 44.2662L41.1499 35.4941C41.0663 35.5707 40.9847 35.6457 40.9068 35.7185C40.6169 35.9881 40.3433 36.2201 40.0862 36.4143C39.8291 36.6086 39.5779 36.759 39.333 36.8649C39.0876 36.9714 38.8254 37.0246 38.5459 37.0246C38.2835 37.0246 38.0807 36.9673 37.9374 36.8529C37.7943 36.7385 37.7227 36.5812 37.7227 36.3807V36.3348C37.7227 36.3204 37.7244 36.303 37.728 36.2825C37.7417 36.1601 37.7954 36.0187 37.8885 35.8594C37.9817 35.7 38.0937 35.5345 38.2249 35.3627C38.3561 35.191 38.4956 35.0173 38.6443 34.8415C38.7927 34.6657 38.9299 34.4991 39.056 34.3416C39.1819 34.1844 39.2862 34.0404 39.3691 33.9094C39.4521 33.7785 39.4935 33.6724 39.4935 33.5905C39.4935 33.5416 39.4761 33.5026 39.4416 33.4738C39.4071 33.4456 39.35 33.431 39.2707 33.431C39.1326 33.431 38.9902 33.4669 38.8437 33.5384C38.6969 33.6098 38.5518 33.7062 38.4087 33.8265C38.2654 33.9473 38.1257 34.0854 37.9893 34.2406C37.8531 34.396 37.7253 34.5574 37.6062 34.7249C37.4871 34.8927 37.3785 35.0614 37.2802 35.231C37.1817 35.4006 37.0979 35.557 37.0288 35.7C37.0082 35.7449 36.9788 35.8084 36.9408 35.89C36.9029 35.9718 36.8615 36.0639 36.8165 36.1661C36.7715 36.2683 36.7243 36.3737 36.6741 36.4817C36.6242 36.5903 36.5785 36.6925 36.5371 36.7885C36.4956 36.8847 36.4587 36.9702 36.4259 37.0459C36.3929 37.1215 36.3696 37.1737 36.3559 37.2025C36.3387 37.2392 36.31 37.3085 36.2704 37.4107C36.2307 37.5131 36.1849 37.6328 36.1333 37.7695C36.0816 37.9064 36.0272 38.0505 35.9701 38.202C35.9134 38.3531 35.8597 38.4964 35.8096 38.6312C35.7594 38.7661 35.7155 38.8847 35.6777 38.9869C35.6398 39.0889 35.6155 39.1586 35.605 39.1954C35.5707 39.3017 35.5299 39.4017 35.4835 39.4961C35.4368 39.5899 35.3835 39.6726 35.323 39.7444C35.2626 39.8159 35.1936 39.8729 35.1159 39.9158C35.0382 39.959 34.9511 39.9803 34.8546 39.9803C34.7301 39.9803 34.6277 39.9505 34.5463 39.8914C34.4654 39.8321 34.4247 39.7185 34.4247 39.551C34.4247 39.4692 34.435 39.3855 34.4558 39.2998C34.4764 39.2139 34.5026 39.1288 34.5335 39.0452C34.5646 38.9611 34.5966 38.8797 34.6293 38.7999C34.662 38.7201 34.6923 38.6436 34.7198 38.5698C34.9063 38.1611 35.0962 37.7513 35.2894 37.3403C35.4825 36.9297 35.6681 36.5229 35.846 36.1201C35.883 36.0361 35.917 35.9538 35.953 35.8703C35.9422 35.8809 35.9315 35.892 35.9211 35.9023C35.6965 36.1192 35.4732 36.3101 35.2507 36.4756C35.0279 36.6413 34.8069 36.773 34.5879 36.8713C34.3687 36.9693 34.1555 37.0184 33.9483 37.0184C33.8069 37.0184 33.6887 36.996 33.5939 36.951C33.4988 36.9058 33.4231 36.8445 33.366 36.767C33.309 36.6895 33.2684 36.5974 33.2443 36.4911C33.2361 36.4548 33.2311 36.4168 33.2258 36.3789C33.1651 36.4262 33.104 36.4721 33.0425 36.5158C32.8284 36.6667 32.6179 36.7885 32.4108 36.8804C32.2037 36.9725 32.0172 37.0184 31.8517 37.0184C31.686 37.0184 31.5514 36.9633 31.4476 36.8529C31.3442 36.7426 31.2926 36.5544 31.2926 36.2888C31.2926 36.1005 31.3202 35.8818 31.3753 35.6326C31.2855 35.7921 31.1735 35.9535 31.0389 36.1169C30.9042 36.2806 30.7506 36.4297 30.5781 36.5647C30.4053 36.6996 30.2121 36.8089 29.9982 36.8927C29.7842 36.9766 29.5511 37.0184 29.2992 37.0184C29.1852 37.0184 29.0757 37.0041 28.9705 36.9755C28.865 36.9469 28.7728 36.8978 28.6935 36.8283C28.614 36.759 28.5504 36.6658 28.5019 36.5494C28.4537 36.4329 28.4295 36.2866 28.4295 36.1108C28.4295 36.1069 28.4364 36.0445 28.4501 35.9238C28.464 35.8031 28.5079 35.613 28.5822 35.3535C28.6563 35.0939 28.7712 34.7576 28.9264 34.3446C29.0818 33.9318 29.301 33.431 29.584 32.8424C29.6565 32.687 29.7403 32.5755 29.835 32.5081C29.9301 32.4408 30.0325 32.407 30.1429 32.407C30.1915 32.407 30.2414 32.4143 30.2931 32.4283C30.3451 32.4427 30.3932 32.4651 30.4382 32.4959C30.483 32.5266 30.5193 32.5656 30.547 32.6125C30.5744 32.6594 30.5884 32.7135 30.5884 32.7748C30.5884 32.8157 30.5831 32.8548 30.5728 32.8913C30.5554 32.9611 30.5184 33.0518 30.4617 33.1641C30.4046 33.2767 30.3381 33.4056 30.262 33.5506C30.1863 33.6957 30.1059 33.8521 30.0215 34.02C29.9369 34.1873 29.8583 34.3611 29.7859 34.541C29.7134 34.7211 29.6512 34.9039 29.5994 35.0898C29.5477 35.276 29.5184 35.4569 29.5116 35.6326C29.5116 35.7062 29.5287 35.7736 29.5634 35.8349C29.5978 35.8962 29.6549 35.9268 29.7342 35.9268C29.9584 35.9268 30.1724 35.8532 30.3762 35.7062C30.5797 35.559 30.7678 35.3761 30.9404 35.1574C31.1131 34.9385 31.2691 34.7033 31.409 34.452C31.5488 34.2006 31.6652 33.9707 31.7584 33.7622C31.824 33.6233 31.8818 33.4738 31.9319 33.3145C31.9818 33.1551 32.0363 33.0081 32.0949 32.8729C32.1538 32.738 32.221 32.6257 32.2969 32.5357C32.3726 32.4459 32.4677 32.4008 32.5815 32.4008C32.7059 32.4008 32.8041 32.4479 32.8768 32.5419C32.9493 32.636 32.9854 32.7483 32.9854 32.879C32.9854 32.9526 32.9621 33.0539 32.9155 33.1828C32.8688 33.3115 32.8101 33.4587 32.7395 33.6242C32.6686 33.7899 32.5918 33.9666 32.5091 34.1545C32.4265 34.3428 32.3493 34.5337 32.2789 34.7281C32.2078 34.9222 32.1495 35.1124 32.1027 35.2984C32.056 35.4843 32.0329 35.6571 32.0329 35.8164C32.0329 35.9636 32.1088 36.0374 32.2606 36.0374C32.3676 36.0374 32.5004 36.0006 32.6592 35.9268C32.8181 35.8532 32.9847 35.7501 33.1589 35.6171C33.2023 35.5839 33.2462 35.5494 33.2898 35.5129C33.3383 35.3122 33.3954 35.1268 33.4619 34.9581C33.5826 34.639 33.705 34.3224 33.8295 34.0075C33.9536 33.6929 34.0675 33.4045 34.1712 33.1428L35.7397 29.1876C35.8019 29.0281 35.8857 28.9156 35.9907 28.8502C36.0962 28.7849 36.2023 28.7521 36.3093 28.7521C36.4162 28.7521 36.5136 28.7869 36.6018 28.8564C36.6898 28.9259 36.7339 29.0383 36.7339 29.1937C36.7339 29.2673 36.7191 29.3449 36.6898 29.4267C36.6604 29.5085 36.6235 29.5963 36.5785 29.6904C36.4923 29.8827 36.3895 30.1176 36.2704 30.3956C36.1513 30.6737 36.0235 30.9762 35.8873 31.3032C35.7509 31.6303 35.611 31.9705 35.4679 32.3241C35.3248 32.6779 35.1849 33.0223 35.0485 33.3574C34.9123 33.6929 34.7845 34.0104 34.6654 34.311C34.5463 34.6114 34.4439 34.8722 34.3573 35.0929C34.3194 35.1869 34.2823 35.2964 34.2462 35.421C34.2099 35.5457 34.1918 35.6571 34.1918 35.7553C34.1918 35.8164 34.2023 35.8655 34.2229 35.9023C34.2437 35.9391 34.2834 35.9576 34.342 35.9576C34.4144 35.9576 34.5049 35.9321 34.6137 35.8809C34.7225 35.8299 34.8396 35.7622 34.9657 35.6785C35.0919 35.5947 35.2229 35.4987 35.3591 35.3903C35.4956 35.282 35.6311 35.1697 35.7655 35.053C35.9003 34.9364 36.0288 34.82 36.1513 34.7033C36.2738 34.5871 36.3835 34.4797 36.4802 34.3816C36.5029 34.3579 36.5299 34.3414 36.5598 34.3289C36.6181 34.1547 36.6713 33.9842 36.7182 33.8175C36.7459 33.7439 36.784 33.6397 36.8322 33.5046C36.8803 33.3697 36.9358 33.2369 36.9978 33.106C37.0599 32.9753 37.1299 32.8617 37.2075 32.7657C37.2851 32.6697 37.3689 32.6216 37.4587 32.6216C37.5968 32.6216 37.6969 32.6534 37.7589 32.7165C37.8211 32.7801 37.8521 32.8729 37.8521 32.9958C37.8521 33.0203 37.8487 33.0591 37.8418 33.1121C37.8347 33.1654 37.8263 33.2217 37.816 33.2809C37.8057 33.3401 37.7943 33.3963 37.7822 33.4497C37.7701 33.5026 37.7589 33.5416 37.7486 33.5661C37.8761 33.4269 38.0142 33.2891 38.1627 33.1522C38.3111 33.0152 38.4647 32.8913 38.6234 32.781C38.7824 32.6706 38.9445 32.5809 39.1104 32.511C39.2759 32.4418 39.4416 32.407 39.6073 32.407C39.7211 32.407 39.8341 32.4233 39.9463 32.4561C40.0585 32.4888 40.1587 32.5368 40.2466 32.6001C40.3346 32.6637 40.4064 32.7433 40.4615 32.8393C40.5166 32.9353 40.5442 33.0466 40.5442 33.1736C40.5442 33.3412 40.502 33.5201 40.4174 33.7101C40.333 33.9003 40.2268 34.0914 40.099 34.2833C39.9714 34.4756 39.8332 34.6625 39.685 34.8445C39.5365 35.0265 39.3977 35.1919 39.2683 35.3412C39.1387 35.4905 39.0299 35.6171 38.9418 35.7213C38.854 35.8258 38.808 35.8962 38.8048 35.933C38.8048 35.9821 38.8204 36.0219 38.8514 36.0527C38.8825 36.0833 38.9342 36.0987 39.0066 36.0987C39.0652 36.0987 39.1518 36.0658 39.2654 36.0006C39.3794 35.9352 39.5392 35.8217 39.7443 35.6601C39.9497 35.4987 40.2105 35.282 40.5262 35.01C40.7427 34.8239 40.9964 34.6017 41.2821 34.349L42.6514 21.6678C42.4307 21.7896 42.2014 21.866 42.0661 21.9106C41.4997 22.0977 40.6997 22.2642 39.6885 22.4056ZM32.0521 19.3967C26.1324 19.3967 21.3335 20.0587 21.3335 20.8753C21.3335 21.6918 26.1324 22.3537 32.0521 22.3537C37.9717 22.3537 42.7706 21.6918 42.7706 20.8753C42.7706 20.0587 37.9717 19.3967 32.0521 19.3967ZM36.3319 21.3073C36.3319 21.4989 35.7616 21.6543 35.0579 21.6543C34.3545 21.6543 33.7842 21.4989 33.7842 21.3073C33.7842 21.1156 34.3545 20.9602 35.0579 20.9602C35.7616 20.9602 36.3319 21.1156 36.3319 21.3073Z" fill="#7DBCCA"/>
<path fill-rule="evenodd" clip-rule="evenodd" d="M34.0443 21.1538C34.038 21.1637 34.0347 21.1741 34.0347 21.1845C34.0347 21.3086 34.4939 21.4091 35.0601 21.4091C35.6265 21.4091 36.0855 21.3086 36.0855 21.1845L37.4249 15.754L42.7513 10.1305C42.7531 10.1288 42.7547 10.127 42.7563 10.1251C42.8692 9.99763 42.6404 9.60301 42.2606 9.26458C41.8811 8.92614 41.4713 8.81156 41.3438 8.94043C41.3429 8.94139 41.3419 8.94237 41.341 8.94337L35.658 14.9234L34.0443 21.1538Z" fill="#7DBCCA"/>
</svg>
