<svg width="128" height="128" viewBox="0 0 128 128" fill="none" xmlns="http://www.w3.org/2000/svg">
<path d="M99.5555 28.4444H28.4443V99.5555H99.5555V28.4444Z" fill="#7DBCCA"/>
<path d="M76.212 84.0004C77.6445 86.3392 79.508 88.0583 82.804 88.0583C85.5727 88.0583 87.3416 86.6745 87.3416 84.7623C87.3416 82.4711 85.5243 81.6594 82.4765 80.3264L80.8061 79.6096C75.9841 77.5552 72.7805 74.9817 72.7805 69.5414C72.7805 64.5295 76.5992 60.7143 82.5668 60.7143C86.8153 60.7143 89.8699 62.1931 92.0708 66.0647L86.8673 69.4059C85.7217 67.3515 84.4857 66.5423 82.5668 66.5423C80.6095 66.5423 79.3693 67.7839 79.3693 69.4059C79.3693 71.4105 80.6109 72.2219 83.4777 73.4635L85.1481 74.1792C90.826 76.6141 94.0317 79.0962 94.0317 84.6767C94.0317 90.693 89.3057 93.9887 82.9586 93.9887C76.7528 93.9887 72.7435 91.0315 70.7816 87.1552L76.212 84.0004ZM52.6066 84.5796C53.6562 86.442 54.6113 88.0167 56.9071 88.0167C59.1026 88.0167 60.4875 87.1577 60.4875 83.8176V61.0959H67.1695V83.9079C67.1695 90.8271 63.1129 93.9762 57.1915 93.9762C51.8411 93.9762 48.7428 91.2075 47.167 87.8727L52.6066 84.5796Z" fill="#234A52"/>
</svg>
