<svg width="96" height="96" viewBox="0 0 96 96" fill="none" xmlns="http://www.w3.org/2000/svg">
<path d="M88.8267 44.9533C88.8103 44.9648 86.0577 46.9169 86.0577 49.3315C86.0577 53.2519 83.0542 58.7964 78.2381 59.7002C76.4951 64.1166 73.4005 65.4165 72.8003 67.2213C72.2328 68.924 70.4349 71.5108 61.4096 74.3109C56.5181 75.8299 51.0048 76.8896 48.0013 76.8896C44.9978 76.8896 39.4846 75.8299 34.593 74.3109C25.5677 71.5108 23.7699 68.924 23.2023 67.2213C22.6036 65.4206 19.5059 64.1126 17.7645 59.7002C12.9484 58.7964 9.94488 53.2519 9.94488 49.3315C9.94488 46.9169 7.19235 44.9648 7.16447 44.9451C6.10151 44.2545 5.72259 42.9308 6.20977 41.7612C8.30124 36.731 13.9948 24.6875 19.2687 22.0506C22.9923 20.1888 28.025 20.4463 31.8421 21.0697C38.9139 18.515 56.889 18.4426 64.1605 21.0697C67.9777 20.4463 73.0103 20.1904 76.7323 22.0506C81.9895 24.6776 87.725 36.7879 89.7929 41.7612C90.28 42.9308 89.888 44.2644 88.8267 44.9533Z" fill="#448A9A"/>
<path d="M79.4965 51.956C79.4965 63.06 73.6352 64.7115 72.8006 67.2213C72.233 68.924 70.4352 71.5108 61.4099 74.3109C56.5183 75.8299 51.0051 76.8896 48.0016 76.8896C44.9981 76.8896 39.4848 75.8299 34.5932 74.3109C25.568 71.5108 23.7701 68.924 23.2026 67.2213C22.351 64.6605 16.5066 63.1538 16.5066 51.956C16.5066 40.7035 24.7089 25.3987 29.4851 22.2146C33.8976 19.2834 44.0291 19.1488 49.3139 19.1488C53.834 19.1488 62.7292 19.6888 66.5147 22.213C71.3293 25.4218 79.4965 40.7458 79.4965 51.956Z" fill="#7DBCCA"/>
<path d="M63.5208 72.7198C63.2239 73.3874 62.6514 73.9173 61.9231 74.1502C56.9593 75.7381 51.1049 76.8896 48.0013 76.8896C44.8977 76.8896 39.0433 75.7381 34.0795 74.1502C33.3512 73.9173 32.7787 73.3874 32.4818 72.7198C29.3582 66.6498 25.5859 56.2259 30.3986 51.4131C33.996 47.8066 36.9991 43.6132 42.4011 42.8799C43.9148 42.6762 45.2883 43.803 45.3751 45.3372C45.4965 45.7473 46.5365 46.7069 48.0013 46.7069C49.4661 46.7069 50.5061 45.7473 50.6275 45.3372C50.7145 43.8 52.0906 42.6767 53.6015 42.8799C58.9927 43.6117 61.9764 47.7763 65.604 51.4131C70.4214 56.2307 66.635 66.6678 63.5208 72.7198Z" fill="#448A9A"/>
<path d="M30.2853 38.8333C27.7367 38.8333 25.6897 40.8979 25.6897 43.4263C25.6897 45.963 27.7461 48.0194 30.2827 48.0194C32.8313 48.0194 34.8783 45.9548 34.8783 43.4263C34.8783 40.8897 32.822 38.8333 30.2853 38.8333Z" fill="#234A52"/>
<path d="M65.7144 48.0194C68.263 48.0194 70.31 45.9548 70.31 43.4263C70.31 40.8897 68.2537 38.8333 65.717 38.8333C63.1684 38.8333 61.1213 40.8979 61.1213 43.4263C61.1213 45.963 63.1777 48.0194 65.7144 48.0194Z" fill="#234A52"/>
<path d="M54.1248 45.7651C54.1248 48.4301 51.0917 50.6262 47.9998 50.6262C44.8644 50.6262 41.8748 48.3958 41.8748 45.7651C41.8748 43.8851 43.4838 41.8762 47.9998 41.8762C52.5157 41.8762 54.1248 43.8851 54.1248 45.7651Z" fill="#234A52"/>
</svg>
