<svg width="32" height="32" viewBox="0 0 32 32" fill="none" xmlns="http://www.w3.org/2000/svg">
<path d="M25.8892 8.90525C27.2626 10.3639 27.9999 11.9999 27.9999 14.6519C27.9999 19.3186 24.7239 23.5012 19.9599 25.5693L18.7692 23.7319C23.2159 21.3266 24.0852 18.2053 24.4319 16.2373C23.7159 16.6079 22.7786 16.7373 21.8599 16.6519C19.4546 16.4293 17.5586 14.4546 17.5586 11.9999C17.5586 10.7622 18.0502 9.57526 18.9254 8.70009C19.8006 7.82492 20.9876 7.33325 22.2252 7.33325C23.6559 7.33325 25.0239 7.98659 25.8892 8.90525ZM12.5559 8.90525C13.9292 10.3639 14.6666 11.9999 14.6666 14.6519C14.6666 19.3186 11.3906 23.5012 6.62656 25.5693L5.4359 23.7319C9.88256 21.3266 10.7519 18.2053 11.0986 16.2373C10.3826 16.6079 9.44523 16.7373 8.52656 16.6519C6.12123 16.4293 4.22656 14.4546 4.22656 11.9999C4.22656 10.7622 4.71823 9.57526 5.5934 8.70009C6.46857 7.82492 7.65555 7.33325 8.89323 7.33325C10.3239 7.33325 11.6919 7.98659 12.5572 8.90525H12.5559Z" fill="#7DBCCA"/>
</svg>
