<svg width="32" height="32" viewBox="0 0 32 32" fill="none" xmlns="http://www.w3.org/2000/svg">
<path d="M24.9709 16.95C24.1031 16.9546 23.3489 17.1637 22.7173 17.4729C22.4856 17.0137 22.254 16.6045 22.2131 16.3045C22.1677 15.9544 22.1131 15.7408 22.1677 15.3225C22.2221 14.9043 22.4675 14.3087 22.4629 14.2633C22.4584 14.2178 22.4085 14.0041 21.9086 13.9996C21.4089 13.995 20.9773 14.095 20.9273 14.2268C20.8773 14.3588 20.7819 14.6588 20.7182 14.9679C20.6319 15.4225 19.7187 17.0455 19.1962 17.8956C19.0281 17.5638 18.8827 17.2728 18.8509 17.041C18.8055 16.6909 18.7509 16.4772 18.8055 16.059C18.86 15.6407 19.1053 15.0452 19.1008 14.9997C19.0963 14.9543 19.0463 14.7406 18.5465 14.7361C18.0468 14.7315 17.6151 14.8316 17.5651 14.9634C17.5151 15.0952 17.4606 15.4044 17.3561 15.7044C17.2517 16.0044 16.0385 18.714 15.7205 19.414C15.5569 19.7732 15.4161 20.0596 15.3161 20.2551C15.3161 20.2551 15.3116 20.2688 15.298 20.2915C15.2117 20.4597 15.1616 20.5507 15.1616 20.5507C15.1616 20.5507 15.1616 20.5507 15.1616 20.5552C15.0935 20.678 15.0208 20.7916 14.9845 20.7916C14.9572 20.7916 14.9072 20.4643 14.9935 20.0188C15.1753 19.0777 15.6069 17.6138 15.6023 17.5638C15.6023 17.5365 15.6841 17.282 15.3206 17.15C14.9663 17.0182 14.839 17.2364 14.8073 17.2364C14.7755 17.2364 14.7527 17.3138 14.7527 17.3138C14.7527 17.3138 15.148 15.668 13.9985 15.668C13.2806 15.668 12.2902 16.4545 11.7995 17.1637C11.4906 17.3319 10.8317 17.6911 10.1276 18.0775C9.85948 18.2276 9.58232 18.3775 9.32339 18.5185C9.30516 18.5003 9.28703 18.4776 9.26881 18.4594C7.87853 16.9728 5.30696 15.9226 5.416 13.9268C5.45689 13.1995 5.70678 11.29 10.3547 8.97147C14.1803 7.08481 17.2244 7.60763 17.7514 8.7669C18.5056 10.4217 16.1203 13.4949 12.1676 13.9404C10.6591 14.1087 9.86854 13.5268 9.66863 13.3085C9.45965 13.0812 9.42783 13.0676 9.35059 13.1131C9.22339 13.1812 9.30516 13.3859 9.35059 13.504C9.46872 13.8132 9.95485 14.3588 10.7773 14.6269C11.5042 14.8634 13.2716 14.9952 15.4116 14.1678C17.806 13.2404 19.6778 10.6627 19.1281 8.50323C18.5783 6.31196 14.9436 5.58911 11.5042 6.81204C9.45965 7.53943 7.24245 8.68507 5.64772 10.1762C3.7531 11.9492 3.45324 13.4904 3.57591 14.1359C4.01662 16.4272 7.1743 17.9184 8.43738 19.0231C8.37377 19.0595 8.3147 19.0913 8.26473 19.1186C7.63319 19.4323 5.22517 20.6916 4.62544 22.0236C3.94393 23.533 4.73449 24.6149 5.25698 24.7604C6.87899 25.2105 8.54642 24.4012 9.44143 23.0647C10.3365 21.7281 10.2275 19.9915 9.81405 19.1958C9.80952 19.1868 9.80499 19.1777 9.79583 19.1686C9.95939 19.0732 10.1276 18.9731 10.2911 18.8776C10.6137 18.6867 10.9317 18.5094 11.2044 18.3639C11.0499 18.7867 10.9363 19.2914 10.8817 20.0188C10.8136 20.8734 11.1635 21.9827 11.6223 22.4191C11.8268 22.61 12.0676 22.6146 12.2221 22.6146C12.7581 22.6146 12.9989 22.1691 13.267 21.6417C13.5941 20.9962 13.8895 20.246 13.8895 20.246C13.8895 20.246 13.5214 22.2736 14.521 22.2736C14.8845 22.2736 15.2525 21.8008 15.4161 21.5599C15.4161 21.5644 15.4161 21.5644 15.4161 21.5644C15.4161 21.5644 15.4252 21.5508 15.4433 21.5189C15.4797 21.4599 15.5024 21.4235 15.5024 21.4235C15.5024 21.4235 15.5024 21.4189 15.5024 21.4144C15.6478 21.1598 15.9749 20.5825 16.4611 19.6232C17.0881 18.3867 17.6924 16.841 17.6924 16.841C17.6924 16.841 17.7469 17.2183 17.9332 17.8457C18.0421 18.2139 18.2693 18.6185 18.4511 19.0095C18.3057 19.214 18.2149 19.3277 18.2149 19.3277C18.2149 19.3277 18.2149 19.3277 18.2194 19.3323C18.1013 19.4868 17.9741 19.655 17.8332 19.8187C17.338 20.4097 16.7473 21.0871 16.6655 21.2826C16.5701 21.5144 16.5928 21.6827 16.7746 21.819C16.9063 21.919 17.1426 21.9327 17.3834 21.919C17.8286 21.8872 18.1421 21.7781 18.2966 21.71C18.5374 21.6236 18.8191 21.4917 19.0826 21.2962C19.5688 20.9371 19.8641 20.4234 19.8368 19.746C19.8232 19.3732 19.7005 19.0004 19.5506 18.6503C19.596 18.5867 19.6369 18.523 19.6823 18.4594C20.4502 17.3364 21.0453 16.1044 21.0453 16.1044C21.0453 16.1044 21.0999 16.4818 21.2861 17.1092C21.3771 17.4274 21.5633 17.7729 21.7269 18.1093C21.0045 18.6958 20.5592 19.3777 20.4002 19.8232C20.114 20.6507 20.3366 21.0235 20.7591 21.1098C20.95 21.1508 21.2226 21.0598 21.4225 20.9734C21.6769 20.8916 21.9768 20.7507 22.263 20.5415C22.7492 20.1824 23.2172 19.6823 23.1899 19.0049C23.1763 18.6958 23.0945 18.3912 22.9809 18.0956C23.5942 17.8411 24.3848 17.7002 25.3934 17.8184C27.5561 18.073 27.9832 19.4232 27.9014 19.9915C27.8197 20.5597 27.3653 20.8689 27.2154 20.9644C27.0654 21.0598 27.0155 21.0916 27.0291 21.1598C27.0472 21.2598 27.1199 21.2553 27.2471 21.2371C27.4244 21.2052 28.383 20.778 28.4239 19.7324C28.4921 18.3957 27.2199 16.9364 24.9709 16.95ZM8.28744 22.5782C7.56958 23.3602 6.57003 23.6556 6.1384 23.4056C5.67498 23.1374 5.85671 21.9827 6.73813 21.1553C7.27426 20.6507 7.96486 20.1824 8.42375 19.896C8.52825 19.8324 8.68272 19.7414 8.869 19.6277C8.90081 19.6096 8.91894 19.6004 8.91894 19.6004C8.9553 19.5778 8.99165 19.555 9.02801 19.5323C9.35059 20.7143 9.04161 21.7554 8.28744 22.5782ZM13.5124 19.0231C13.2625 19.6323 12.74 21.1916 12.422 21.1052C12.1493 21.0325 11.9813 19.8505 12.3675 18.6821C12.5628 18.0956 12.9763 17.3956 13.2171 17.1228C13.6078 16.6864 14.0394 16.5409 14.1439 16.7182C14.2757 16.95 13.6669 18.6412 13.5124 19.0231ZM17.8241 21.0871C17.7196 21.1416 17.6197 21.178 17.5742 21.1508C17.5424 21.1325 17.6197 21.0598 17.6197 21.0598C17.6197 21.0598 18.1603 20.4779 18.3739 20.2142C18.4965 20.0596 18.6419 19.8778 18.7964 19.6732C18.7964 19.6914 18.7964 19.7141 18.7964 19.7324C18.7964 20.4279 18.1239 20.8962 17.8241 21.0871ZM21.1499 20.3279C21.0726 20.2733 21.0862 20.0915 21.3453 19.5232C21.4452 19.3004 21.6814 18.9276 22.0858 18.5685C22.1313 18.714 22.163 18.8549 22.1585 18.9868C22.154 19.8642 21.527 20.1915 21.1499 20.3279Z" fill="#7DBCCA"/>
</svg>
