<svg width="64" height="64" viewBox="0 0 64 64" fill="none" xmlns="http://www.w3.org/2000/svg">
<path fill-rule="evenodd" clip-rule="evenodd" d="M31.9998 7.11108L53.3332 19.1097V43.1125L31.9998 55.1111L10.6665 43.1125V19.1097L31.9998 7.11108ZM49.5234 42.2848L32.7049 51.7456V44.3786L43.184 38.6453L49.5234 42.2848ZM50.6756 41.2489V21.4668L44.5236 25.0023V37.7189L50.6756 41.2489ZM14.4089 42.2848L31.2276 51.7456V44.3786L20.7428 38.6453L14.4089 42.2848ZM13.2568 41.2489V21.4668L19.4088 25.0023V37.7189L13.2568 41.2489ZM13.9789 20.1842L31.2276 10.4822V17.6024L20.175 23.6483L20.0868 23.6978L13.9789 20.1842ZM49.9535 20.1842L32.7049 10.4822V17.6024L43.7574 23.6428L43.8456 23.6922L49.9535 20.1842ZM20.8887 37.045L31.2302 42.7018V31.7828L20.8887 25.8466V37.045ZM43.0489 37.0504L32.7075 42.7018V31.7828L43.0489 25.8466V37.0504ZM31.9689 18.8799L21.5888 24.5529L31.9689 30.5112L42.3488 24.5529L31.9689 18.8799Z" fill="#7DBCCA"/>
</svg>
