<svg width="32" height="32" viewBox="0 0 32 32" fill="none" xmlns="http://www.w3.org/2000/svg">
<path d="M27.6775 27.6775C28.1075 27.2475 28.1075 26.5504 27.6775 26.1205L17.557 16L27.6775 5.87954C28.1075 5.44959 28.1075 4.75249 27.6775 4.32254C27.2476 3.89259 26.5505 3.89259 26.1205 4.32254L16 14.443L5.87947 4.32247C5.44951 3.89251 4.75242 3.89251 4.32247 4.32247C3.89251 4.75242 3.89251 5.44951 4.32247 5.87947L14.443 16L4.3225 26.1205C3.89254 26.5505 3.89254 27.2476 4.3225 27.6775C4.75245 28.1075 5.44954 28.1075 5.8795 27.6775L16 17.557L26.1205 27.6775C26.5505 28.1074 27.2475 28.1074 27.6775 27.6775Z" fill="black"/>
</svg>
