<svg width="63" height="83" viewBox="0 0 63 83" fill="none" xmlns="http://www.w3.org/2000/svg">
<path d="M62.1323 68.0606L58.7811 61.4532L62.0723 50.6239C63.7177 45.5394 63.1484 40.1002 60.5713 35.3231L53.0974 21.601C51.3458 18.2465 47.3278 16.9274 43.7753 18.5551C43.5185 18.606 43.3124 18.9114 43.0545 18.9615L35.1685 3.86688C33.4168 0.51234 29.0892 -1.01027 25.6912 0.719044C24.7129 1.1773 23.9414 1.99113 23.1687 2.80424C21.0571 0.975047 18.0175 0.518936 15.3402 1.84198C12.6629 3.16482 11.2227 5.96151 11.481 8.5542C10.3993 8.50363 9.36953 8.70836 8.28858 9.31876C4.89048 11.0479 3.3481 15.3201 5.09987 18.6745L6.43989 21.3175C5.51348 21.369 4.63678 21.6744 3.91709 22.0815C0.518993 23.8106 -1.02339 28.0828 0.728381 31.4372L5.62521 41.0425C6.75854 43.33 7.94514 45.8706 8.87313 49.1244L9.07985 49.48C11.4526 56.5457 17.744 74.996 31.1847 75.2444L34.5359 81.8518C35.1542 82.9189 36.4426 83.325 37.5235 82.7146C38.6045 82.1042 39.0159 80.8324 38.3975 79.7653L34.4282 72.0907C34.0166 71.3792 33.2436 70.871 32.3162 70.9218C21.2448 71.7908 15.4691 54.5596 13.1997 48.0027L12.993 47.6471C11.9102 44.293 10.6736 41.4967 9.38416 39.1081L4.48733 29.5028C3.81641 28.1815 4.33159 26.7582 5.67015 26.0958C7.00865 25.4334 8.60564 26.0441 9.12144 27.2634L16.3891 41.2912C17.0075 42.3583 18.2958 42.7645 19.3768 42.154C20.4577 41.5436 20.8691 40.2718 20.2508 39.2047L9.27157 16.7902C8.60065 15.4688 9.21918 13.8923 10.4544 13.3831C11.7929 12.7208 13.2347 13.2293 13.9057 14.5507L23.8537 33.8644C24.472 34.9315 25.7604 35.3376 26.7379 34.8804C27.8189 34.27 28.2303 32.9982 27.612 31.9311L16.0659 9.36532C15.395 8.04398 16.0135 6.46745 17.2487 5.95826C18.5872 5.29594 20.1842 5.90656 20.7 7.12592L31.3696 28.0155C31.9879 29.0826 33.2762 29.4887 34.3572 28.8783C35.4382 28.2679 35.8496 26.996 35.2312 25.9289L26.1592 8.29234C25.4883 6.97099 26.1068 5.39448 27.342 4.88529C28.6805 4.22297 30.1223 4.73153 30.7933 6.05293L39.4524 22.9772C38.8864 24.808 38.8873 26.7903 39.7632 28.4674L42.2374 33.3969C30.3461 44.0775 37.6641 55.0552 37.8195 55.1573C38.5405 56.0723 39.6737 56.3763 40.6519 55.9181C40.6519 55.9181 40.7546 55.7659 40.9087 55.8672C41.8356 55.1555 42.0928 53.7823 41.37 52.8677C41.1633 52.5122 36.3717 45.3968 44.0412 37.6661C44.2987 38.2763 44.6088 39.1407 44.7636 39.903L45.1759 41.2755C45.5374 42.3935 46.6187 43.1043 47.9056 42.8506C49.038 42.4936 49.7581 41.4263 49.501 40.1558L49.0887 38.7833C49.2949 36.4963 48.8301 34.8696 47.8517 33.3445L44.2433 26.127C43.8316 25.4155 43.831 24.7545 44.0871 24.0427C44.3443 23.3316 44.9106 22.8221 45.5287 22.5679C46.8672 21.9056 48.4642 22.5162 48.98 23.7355L56.4539 37.4576C58.4122 41.1678 58.8789 45.4378 57.6956 49.5053L54.0451 61.1997C53.8905 61.7586 53.9938 62.2675 54.2513 62.8776L58.014 70.1965C58.6324 71.2636 59.9207 71.6697 61.0017 71.0593C62.2372 70.552 62.7512 69.128 62.1329 68.0609L62.1323 68.0606Z" fill="black"/>
</svg>
