<svg width="52" height="67" viewBox="0 0 52 67" fill="none" xmlns="http://www.w3.org/2000/svg">
<path d="M17.6387 3.01761C15.9491 1.88539 13.695 1.31928 11.4425 2.07366C8.43793 3.01762 6.37248 6.03782 6.37248 9.24602L6.37248 15.8525C3.74384 17.3626 1.8658 20.0047 1.49094 23.2133L0.175947 32.8386C-0.574542 37.9348 1.11504 43.2195 4.49419 47.1823L12.9433 56.997L12.9433 64.7356C12.9433 66.0574 13.8824 67 15.196 67C16.511 67 17.4488 66.056 17.4488 64.7356L17.4488 56.0529C17.4488 55.4868 17.2615 54.9207 16.8856 54.5429L7.87326 44.162C5.24462 41.1419 4.1183 37.3674 4.68143 33.4033L5.99641 23.778C6.37231 20.9475 8.81235 18.8711 11.6297 19.0595L23.2708 19.2478C24.773 19.2478 25.8994 20.38 25.8994 21.8901C25.8994 22.6444 25.5235 23.2119 25.1489 23.778C24.5857 24.3441 24.0225 24.5323 23.2707 24.5323L15.3846 24.1545C14.2582 24.1545 13.3191 24.9089 13.1318 26.0424L12.3813 31.1387C12.1941 32.4605 13.1318 33.5927 14.2595 33.7809C15.3859 33.9692 16.7009 33.0266 16.8882 31.893L17.2641 29.2508C25.1502 33.0252 24.5869 40.7637 24.5869 41.1416C24.3996 42.4634 25.3374 43.406 26.6524 43.5956L26.8396 43.5956C27.966 43.5956 28.9051 42.6516 29.0924 41.5194C29.4683 38.311 28.5292 33.0265 24.5857 28.874C26.088 28.6857 27.5903 28.1196 28.7166 26.986C29.2798 26.4199 29.6557 25.8538 30.0316 25.2877C31.1579 26.0421 32.4729 26.4199 33.9753 26.4199C36.228 26.4199 38.2935 25.2877 39.6085 23.5894C40.7349 24.5334 42.2372 24.9112 43.7394 24.9112C44.8658 24.9112 45.8049 24.7229 46.7439 24.1568C47.8703 30.5736 48.0589 37.1801 48.0589 41.8985C48.0589 46.0507 45.8061 49.8255 42.4256 52.0897L40.3601 53.4115C39.6097 53.7893 39.2338 54.5437 39.2338 55.2994L39.2338 64.3584C39.2338 65.6802 40.1728 66.6229 41.4865 66.6229C42.8015 66.6229 43.7393 65.6789 43.7393 64.3584L43.7393 56.6199L44.1139 56.4303C48.9954 53.4102 51.8126 48.1255 52 42.4634C52 36.6128 51.8127 28.1196 49.9345 20.3811C50.1218 19.6267 50.3104 18.871 50.3104 18.1166L50.3104 10.7559C50.3104 6.79169 47.1186 3.20702 43.175 3.20702C41.4855 3.20702 40.1705 3.77313 38.8568 4.52883C37.5418 2.83049 35.4777 1.69831 33.2235 1.69831C31.7212 1.69831 30.219 2.26441 29.0927 3.0201C27.7777 1.32177 25.7136 6.08477e-06 23.2723 5.87135e-06C21.0182 0.186954 18.9527 1.31918 17.6391 3.01748L17.6387 3.01761ZM16.3237 14.7204L11.817 14.5321L11.0665 14.5321L11.0665 8.86963C11.0665 7.35956 12.1929 6.22737 13.6952 6.22737C15.1974 6.22737 16.3238 7.35959 16.3238 8.86963L16.3237 14.7204ZM40.3576 10.3797C40.3576 8.86966 41.484 7.73747 42.9862 7.73747C44.4885 7.73747 45.6148 8.86969 45.6148 10.3797L45.6148 18.1183C45.6148 19.6284 44.4885 20.7606 42.9862 20.7606C41.484 20.7606 40.3576 19.6283 40.3576 18.1183L40.3576 10.3797ZM30.5948 9.05793C30.5948 7.54786 31.7212 6.41567 33.2235 6.41567C34.7257 6.41567 35.8521 7.5479 35.8521 9.05793L35.8521 19.4388C35.8521 20.9489 34.7257 22.0811 33.2235 22.0811C31.7212 22.0811 30.5948 20.9489 30.5948 19.4388L30.5948 9.05793ZM26.0881 7.35959L26.0881 15.4746C25.149 15.0968 24.21 14.9085 23.2722 14.7203L20.8309 14.7203L20.8309 7.3595C20.8309 5.84943 21.9572 4.71723 23.4595 4.71723C24.9617 4.71723 26.0881 5.84946 26.0881 7.3595L26.0881 7.35959Z" fill="black"/>
</svg>
