<svg width="67" height="87" viewBox="0 0 67 87" fill="none" xmlns="http://www.w3.org/2000/svg">
<path d="M60.1251 9.07443C58.3159 9.04331 56.3827 9.66448 55.1474 10.9922L42.2864 23.0747L48.8535 10.2639C50.6285 6.90386 49.1733 2.51445 45.8276 0.733374C42.3113 -0.976566 38.1071 0.412323 36.3327 3.77064L24.6075 26.5892C21.5214 25.898 18.1635 26.9269 15.7888 29.3388L9.1016 36.1901C5.49154 39.9297 3.7829 44.8644 4.12463 49.9272L5.0632 62.5495L0.478174 68.708C-0.321752 69.6492 -0.0867318 71.1521 0.949381 71.7133C1.98433 72.275 3.3844 72.2803 3.94348 71.2403L9.06167 64.4555C9.49765 64.0701 9.45133 63.4889 9.40569 62.906L8.34879 49.5317C8.09967 45.6311 9.321 41.9057 12.1309 39.1073L18.8181 32.2559C20.7567 30.2294 23.7243 30.1688 25.9386 31.6305L26.0101 31.7999L34.9586 38.8108C36.1371 39.7125 36.2029 41.2861 35.475 42.398C35.1831 43.1245 34.5056 43.4127 33.7578 43.531C33.01 43.6493 32.2862 43.3563 31.9018 42.9175L25.793 37.9029C24.9268 37.2694 23.6967 37.1918 22.8252 37.9636L19.3126 41.4619C18.4411 42.2337 18.4353 43.6379 19.203 44.5131C19.972 45.3878 21.3709 45.3936 22.2428 44.623L24.0841 42.8377C28.0594 50.363 23.09 56.0825 22.8225 56.396C22.0225 57.3372 22.0172 58.7425 22.9549 59.5454C22.9549 59.5454 23.0265 59.7148 23.1952 59.643C24.0614 60.2765 25.4615 60.2818 26.0914 59.4129C28.1267 57.144 30.5587 52.5039 30.0031 46.9311C31.2795 47.5899 32.822 47.9357 34.3192 47.6998C35.067 47.5815 35.8165 47.4639 36.5907 46.9333C36.9494 47.7827 37.3795 48.8016 38.0769 49.5069C38.3893 49.7751 38.7023 50.0416 39.0146 50.3098C40.4346 51.3086 42.2185 51.7515 43.7875 51.685C43.9257 53.4303 44.499 54.788 45.5802 55.9309C45.8926 56.1991 46.2056 56.4656 46.518 56.7338C47.3841 57.3673 48.3482 57.758 49.2396 57.9797C46.4437 63.1756 43.0225 67.8369 40.4992 71.3141C38.0729 74.5501 34.1816 76.2055 30.0806 75.9461L27.6203 75.7909C26.8005 75.7386 26.123 76.0268 25.5903 76.6545L20.3018 83.5147C19.5019 84.4559 19.7369 85.9588 20.773 86.52C21.7107 87.323 23.2081 87.0871 23.7671 86.0471L28.3522 79.8886L29.5823 79.9662C35.1549 80.4003 40.5687 78.0971 43.8934 73.6782C47.1195 69.5011 51.4644 63.2451 54.6749 56.6708C55.0136 56.5266 55.1108 56.2854 55.4496 56.1413L60.8756 51.0283C63.7571 48.3994 63.8725 43.9442 61.2529 41.0507C60.1716 39.9077 58.8952 39.2489 57.4248 39.0737C57.5221 38.8325 57.5485 38.4202 57.6457 38.179C57.6767 36.363 57.0578 34.4226 55.7351 33.1826C55.0377 32.4773 54.4135 31.942 53.6897 31.649L64.7106 21.351C66.188 20.1216 66.8695 18.4286 66.9989 16.371C67.0299 14.5551 66.411 12.6146 65.0883 11.3746C63.6937 9.96111 62.0065 9.27583 60.1254 9.07408L60.1251 9.07443ZM28.7749 28.4219C28.7749 28.4219 28.7033 28.2525 28.5346 28.3243L39.9902 5.8204C40.6466 4.53918 42.2411 4.06208 43.5175 4.72093C43.7578 4.81854 43.7578 4.81854 43.8298 4.98914C44.7675 5.79207 45.1725 7.22267 44.6128 8.26147L32.6961 31.5625L28.7749 28.4219ZM43.0553 47.5896C42.4042 47.4655 41.7536 47.3426 41.2965 46.7349C40.2868 45.7614 40.3178 43.9454 41.3597 43.1025L48.7958 36.1323C49.4006 35.6751 49.9093 35.4587 50.6571 35.3404C51.2361 35.2939 51.7184 35.4899 52.1023 35.9275C52.1738 36.0969 52.3426 36.0251 52.4147 36.1957C52.8701 36.8027 53.0856 37.3133 53.0347 38.1357C52.9111 38.7892 52.7886 39.4423 52.1832 39.901L44.7471 46.8713C44.3827 47.4261 43.7063 47.7137 43.0553 47.5896ZM58.7939 46.1038C58.6702 46.7573 58.5478 47.4103 57.9423 47.8691L52.5163 52.9821C51.9116 53.4393 51.4029 53.6557 50.6551 53.774C49.9073 53.8923 49.3534 53.5269 48.8963 52.9192C48.4409 52.3122 48.2253 51.8016 48.1075 51.051C48.2311 50.3975 48.5235 49.6721 48.959 49.2856L54.385 44.1726C55.3549 43.1591 57.164 43.1902 58.0038 44.2361C58.6303 44.7703 58.8455 45.2797 58.7939 46.1038ZM62.3874 16.3264C62.2637 16.9799 62.1413 17.633 61.5358 18.0917L39.7613 38.3741C39.3311 37.3553 38.6601 36.2377 37.7224 35.4347L36.4723 34.3635L58.0771 14.1534C58.6818 13.6963 59.1905 13.4799 59.9383 13.3616C60.5894 13.4857 61.24 13.6086 61.6971 14.2163C62.2245 14.9939 62.4395 15.5035 62.3874 16.3264Z" fill="black"/>
</svg>
